<svg width="52" height="52" viewBox="0 0 52 52" fill="none" xmlns="http://www.w3.org/2000/svg">
<path d="M25.9977 1.88879L8.92896 11.7444V31.4556L25.9977 41.3112L43.0709 31.4556V11.7444L25.9977 1.88879Z" fill="#FCFC54" stroke="#11140C" stroke-width="1.53246" stroke-miterlimit="10"/>
<path d="M8.92896 11.7444L25.9977 21.6L43.0709 11.7444" stroke="#11140C" stroke-width="1.53246" stroke-miterlimit="10"/>
<path d="M25.9978 21.6V41.3112" stroke="#11140C" stroke-width="1.53246" stroke-miterlimit="10"/>
<path d="M14.337 20.7482C14.8814 20.4339 14.8811 19.4142 14.3363 18.4705C13.7915 17.5269 12.9085 17.0168 12.3641 17.3311C11.8197 17.6454 11.8201 18.6651 12.3649 19.6088C12.9097 20.5524 13.7926 21.0626 14.337 20.7482Z" fill="black"/>
<path d="M22.558 25.4912C23.1024 25.1769 23.1021 24.1571 22.5573 23.2135C22.0125 22.2698 21.1295 21.7597 20.5851 22.074C20.0407 22.3883 20.041 23.4081 20.5858 24.3517C21.1306 25.2953 22.0136 25.8055 22.558 25.4912Z" fill="black"/>
<path d="M18.4508 28.2368C18.9952 27.9225 18.9949 26.9027 18.4501 25.9591C17.9053 25.0154 17.0223 24.5053 16.4779 24.8196C15.9335 25.1339 15.9338 26.1537 16.4786 27.0973C17.0234 28.0409 17.9064 28.5511 18.4508 28.2368Z" fill="black"/>
<path d="M14.3392 30.9824C14.8836 30.6681 14.8833 29.6483 14.3385 28.7047C13.7937 27.7611 12.9107 27.2509 12.3663 27.5652C11.8219 27.8795 11.8223 28.8993 12.3671 29.8429C12.9119 30.7865 13.7948 31.2967 14.3392 30.9824Z" fill="black"/>
<path d="M22.5599 35.7253C23.1043 35.411 23.104 34.3912 22.5592 33.4476C22.0144 32.504 21.1314 31.9938 20.587 32.3081C20.0426 32.6224 20.043 33.6422 20.5878 34.5858C21.1326 35.5294 22.0155 36.0396 22.5599 35.7253Z" fill="black"/>
<path d="M35.5204 27.0979C36.0652 26.1542 36.0655 25.1345 35.5211 24.8202C34.9767 24.5059 34.0938 25.016 33.549 25.9597C33.0041 26.9033 33.0038 27.923 33.5482 28.2374C34.0926 28.5517 34.9756 28.0415 35.5204 27.0979Z" fill="black"/>
<path d="M17.4587 12.6952C18.5484 12.6952 19.4317 12.1856 19.4317 11.5569C19.4317 10.9283 18.5484 10.4187 17.4587 10.4187C16.3691 10.4187 15.4858 10.9283 15.4858 11.5569C15.4858 12.1856 16.3691 12.6952 17.4587 12.6952Z" fill="black"/>
<path d="M34.5408 13.0656C35.6304 13.0656 36.5137 12.556 36.5137 11.9274C36.5137 11.2988 35.6304 10.7892 34.5408 10.7892C33.4512 10.7892 32.5679 11.2988 32.5679 11.9274C32.5679 12.556 33.4512 13.0656 34.5408 13.0656Z" fill="black"/>
<rect width="37.2667" height="14" transform="translate(7.3667 36.1112)" fill="white"/>
<rect width="37.2667" height="14" transform="translate(7.3667 36.1112)" fill="#9EA889"/>
<path d="M16.1219 46.1112V39.8058H20.2229V40.7633H17.2642V42.4751H20.0105V43.4326H17.2642V45.1537H20.2476V46.1112H16.1219ZM25.5632 41.3821L23.8791 46.1112H22.6475L20.9634 41.3821H22.1518L23.2387 44.8951H23.2879L24.3778 41.3821H25.5632ZM28.2672 46.2036C27.793 46.2036 27.3835 46.105 27.0387 45.908C26.6959 45.7089 26.4322 45.4277 26.2474 45.0644C26.0627 44.699 25.9703 44.269 25.9703 43.7744C25.9703 43.2879 26.0627 42.861 26.2474 42.4936C26.4342 42.1241 26.6949 41.8368 27.0295 41.6315C27.364 41.4242 27.7571 41.3205 28.2087 41.3205C28.5001 41.3205 28.7752 41.3677 29.0338 41.4622C29.2945 41.5545 29.5244 41.6982 29.7234 41.8932C29.9246 42.0882 30.0826 42.3366 30.1976 42.6383C30.3125 42.938 30.37 43.2951 30.37 43.7097V44.0515H26.4938V43.3002H29.3016C29.2996 43.0868 29.2534 42.8969 29.1631 42.7306C29.0728 42.5623 28.9466 42.4299 28.7844 42.3335C28.6243 42.237 28.4375 42.1888 28.2241 42.1888C27.9962 42.1888 27.7961 42.2442 27.6237 42.355C27.4513 42.4638 27.3168 42.6075 27.2204 42.7861C27.1259 42.9626 27.0777 43.1566 27.0757 43.368V44.0238C27.0757 44.2988 27.1259 44.5348 27.2265 44.7319C27.3271 44.9269 27.4677 45.0767 27.6483 45.1814C27.8289 45.284 28.0404 45.3353 28.2826 45.3353C28.4447 45.3353 28.5915 45.3128 28.7228 45.2676C28.8542 45.2204 28.9681 45.1516 29.0646 45.0613C29.161 44.971 29.2339 44.8591 29.2832 44.7257L30.3238 44.8427C30.2581 45.1178 30.1329 45.3579 29.9482 45.5632C29.7655 45.7664 29.5315 45.9244 29.2462 46.0373C28.9609 46.1482 28.6346 46.2036 28.2672 46.2036ZM32.4274 43.3403V46.1112H31.3129V41.3821H32.3782V42.1857H32.4336C32.5424 41.9209 32.7158 41.7105 32.9539 41.5545C33.1941 41.3985 33.4907 41.3205 33.8437 41.3205C34.1701 41.3205 34.4543 41.3903 34.6965 41.5299C34.9408 41.6695 35.1296 41.8716 35.263 42.1364C35.3985 42.4012 35.4652 42.7224 35.4632 43.1001V46.1112H34.3486V43.2725C34.3486 42.9564 34.2665 42.7091 34.1023 42.5305C33.9402 42.3519 33.7154 42.2627 33.4281 42.2627C33.2331 42.2627 33.0596 42.3058 32.9077 42.392C32.7579 42.4761 32.6399 42.5983 32.5537 42.7584C32.4695 42.9185 32.4274 43.1124 32.4274 43.3403Z" fill="#11140C"/>
</svg>
