<svg width="52" height="52" viewBox="0 0 52 52" fill="none" xmlns="http://www.w3.org/2000/svg">
<path d="M31.9375 7.25C34.1812 7.25 36 9.06884 36 11.3125C36 13.5562 34.1812 15.375 31.9375 15.375H27.875V25.125H44.9375C47.1812 25.125 49 23.3062 49 21.0625V19.4375C49 17.1938 47.1812 15.375 44.9375 15.375H38.0186C38.7964 14.213 39.25 12.8157 39.25 11.3125C39.25 7.27392 35.9761 4 31.9375 4C29.6403 4 27.5906 5.05923 26.25 6.71592C24.9094 5.05923 22.8597 4 20.5625 4C16.5239 4 13.25 7.27392 13.25 11.3125C13.25 12.8157 13.7036 14.213 14.4814 15.375H5.9375C3.69384 15.375 1.875 17.1938 1.875 19.4375V21.0625C1.875 23.3062 3.69384 25.125 5.9375 25.125H24.625V15.375H20.5625C18.3188 15.375 16.5 13.5562 16.5 11.3125C16.5 9.06884 18.3188 7.25 20.5625 7.25C22.8062 7.25 24.625 9.06884 24.625 11.3125V15.375H27.875V11.3125C27.875 9.06884 29.6938 7.25 31.9375 7.25Z" fill="#FCFC54"/>
<path d="M27.875 28.375H45.75V43C45.75 45.6924 43.5674 47.875 40.875 47.875H27.875V28.375Z" fill="#FCFC54"/>
<path d="M24.625 28.375V47.875H10C7.30761 47.875 5.125 45.6924 5.125 43V28.375H24.625Z" fill="#FCFC54"/>
</svg>
