<svg width="52" height="52" viewBox="0 0 52 52" fill="none" xmlns="http://www.w3.org/2000/svg">
<path d="M25.9977 1.88879L8.92896 11.7444V31.4556L25.9977 41.3112L43.0709 31.4556V11.7444L25.9977 1.88879Z" fill="#FCFC54" stroke="#11140C" stroke-width="1.53246" stroke-miterlimit="10"/>
<path d="M8.92896 11.7444L25.9977 21.6L43.0709 11.7444" stroke="#11140C" stroke-width="1.53246" stroke-miterlimit="10"/>
<path d="M25.9978 21.6V41.3112" stroke="#11140C" stroke-width="1.53246" stroke-miterlimit="10"/>
<path d="M14.337 20.7482C14.8814 20.4339 14.8811 19.4141 14.3363 18.4705C13.7915 17.5269 12.9085 17.0167 12.3641 17.331C11.8197 17.6453 11.8201 18.6651 12.3649 19.6087C12.9097 20.5524 13.7926 21.0625 14.337 20.7482Z" fill="black"/>
<path d="M22.558 25.4911C23.1024 25.1768 23.1021 24.1571 22.5573 23.2134C22.0125 22.2698 21.1295 21.7596 20.5851 22.074C20.0407 22.3883 20.041 23.408 20.5858 24.3517C21.1306 25.2953 22.0136 25.8054 22.558 25.4911Z" fill="black"/>
<path d="M18.4508 28.2367C18.9952 27.9224 18.9949 26.9027 18.4501 25.959C17.9053 25.0154 17.0223 24.5053 16.4779 24.8196C15.9335 25.1339 15.9338 26.1536 16.4786 27.0973C17.0234 28.0409 17.9064 28.551 18.4508 28.2367Z" fill="black"/>
<path d="M14.3392 30.9823C14.8836 30.668 14.8833 29.6483 14.3385 28.7046C13.7937 27.761 12.9107 27.2509 12.3663 27.5652C11.8219 27.8795 11.8223 28.8992 12.3671 29.8429C12.9119 30.7865 13.7948 31.2967 14.3392 30.9823Z" fill="black"/>
<path d="M22.5599 35.7253C23.1043 35.411 23.104 34.3912 22.5592 33.4476C22.0144 32.5039 21.1314 31.9938 20.587 32.3081C20.0426 32.6224 20.043 33.6422 20.5878 34.5858C21.1326 35.5294 22.0155 36.0396 22.5599 35.7253Z" fill="black"/>
<path d="M35.5204 27.0979C36.0652 26.1543 36.0655 25.1345 35.5211 24.8202C34.9767 24.5059 34.0938 25.0161 33.549 25.9597C33.0041 26.9033 33.0038 27.9231 33.5482 28.2374C34.0926 28.5517 34.9756 28.0415 35.5204 27.0979Z" fill="black"/>
<path d="M17.4587 12.6951C18.5484 12.6951 19.4317 12.1855 19.4317 11.5569C19.4317 10.9283 18.5484 10.4187 17.4587 10.4187C16.3691 10.4187 15.4858 10.9283 15.4858 11.5569C15.4858 12.1855 16.3691 12.6951 17.4587 12.6951Z" fill="black"/>
<path d="M34.5408 13.0656C35.6304 13.0656 36.5137 12.556 36.5137 11.9274C36.5137 11.2988 35.6304 10.7892 34.5408 10.7892C33.4512 10.7892 32.5679 11.2988 32.5679 11.9274C32.5679 12.556 33.4512 13.0656 34.5408 13.0656Z" fill="black"/>
<rect width="37.2667" height="14" transform="translate(7.3667 36.1112)" fill="white"/>
<rect width="37.2667" height="14" transform="translate(7.3667 36.1112)" fill="#9EA889"/>
<path d="M16.6219 46.1112V39.8058H17.7642V42.4751H20.686V39.8058H21.8313V46.1112H20.686V43.4326H17.7642V46.1112H16.6219ZM23.0244 46.1112V41.3821H24.1389V46.1112H23.0244ZM23.5847 40.7109C23.4082 40.7109 23.2563 40.6524 23.129 40.5354C23.0018 40.4164 22.9382 40.2737 22.9382 40.1075C22.9382 39.9392 23.0018 39.7965 23.129 39.6795C23.2563 39.5605 23.4082 39.5009 23.5847 39.5009C23.7633 39.5009 23.9152 39.5605 24.0404 39.6795C24.1676 39.7965 24.2313 39.9392 24.2313 40.1075C24.2313 40.2737 24.1676 40.4164 24.0404 40.5354C23.9152 40.6524 23.7633 40.7109 23.5847 40.7109ZM27.3417 47.9831C26.9414 47.9831 26.5976 47.9287 26.3102 47.82C26.0229 47.7132 25.792 47.5695 25.6175 47.3889C25.443 47.2083 25.3219 47.0082 25.2542 46.7885L26.2579 46.5453C26.3031 46.6377 26.3687 46.729 26.455 46.8193C26.5412 46.9117 26.6571 46.9876 26.8029 47.0472C26.9506 47.1087 27.1364 47.1395 27.3601 47.1395C27.6762 47.1395 27.9379 47.0626 28.1452 46.9086C28.3525 46.7567 28.4562 46.5063 28.4562 46.1574V45.2614H28.4008C28.3433 45.3764 28.2592 45.4944 28.1483 45.6155C28.0395 45.7366 27.8948 45.8382 27.7142 45.9203C27.5356 46.0024 27.3109 46.0435 27.0399 46.0435C26.6766 46.0435 26.3472 45.9583 26.0516 45.7879C25.7581 45.6155 25.5241 45.3589 25.3497 45.0182C25.1772 44.6754 25.091 44.2465 25.091 43.7313C25.091 43.212 25.1772 42.7737 25.3497 42.4166C25.5241 42.0574 25.7591 41.7854 26.0547 41.6007C26.3503 41.4139 26.6797 41.3205 27.043 41.3205C27.3201 41.3205 27.5479 41.3677 27.7265 41.4622C27.9071 41.5545 28.0508 41.6664 28.1576 41.7978C28.2643 41.9271 28.3454 42.0492 28.4008 42.1641H28.4624V41.3821H29.5615V46.1882C29.5615 46.5925 29.465 46.9271 29.2721 47.1919C29.0791 47.4567 28.8154 47.6547 28.4808 47.7861C28.1463 47.9175 27.7665 47.9831 27.3417 47.9831ZM27.3509 45.1691C27.5869 45.1691 27.7881 45.1116 27.9543 44.9967C28.1206 44.8817 28.2468 44.7165 28.333 44.501C28.4193 44.2855 28.4624 44.0268 28.4624 43.7251C28.4624 43.4275 28.4193 43.1668 28.333 42.9431C28.2489 42.7194 28.1237 42.5459 27.9574 42.4228C27.7932 42.2976 27.591 42.235 27.3509 42.235C27.1025 42.235 26.8952 42.2996 26.729 42.4289C26.5627 42.5582 26.4375 42.7358 26.3534 42.9616C26.2692 43.1853 26.2271 43.4398 26.2271 43.7251C26.2271 44.0145 26.2692 44.268 26.3534 44.4856C26.4396 44.7011 26.5658 44.8694 26.732 44.9905C26.9004 45.1096 27.1066 45.1691 27.3509 45.1691ZM31.8183 43.3403V46.1112H30.7037V39.8058H31.7937V42.1857H31.8491C31.9599 41.9189 32.1313 41.7085 32.3632 41.5545C32.5972 41.3985 32.8949 41.3205 33.2561 41.3205C33.5845 41.3205 33.8708 41.3893 34.1151 41.5268C34.3594 41.6643 34.5482 41.8655 34.6816 42.1303C34.8171 42.3951 34.8848 42.7183 34.8848 43.1001V46.1112H33.7703V43.2725C33.7703 42.9544 33.6882 42.707 33.524 42.5305C33.3618 42.3519 33.134 42.2627 32.8405 42.2627C32.6434 42.2627 32.4669 42.3058 32.3109 42.392C32.157 42.4761 32.0359 42.5983 31.9476 42.7584C31.8614 42.9185 31.8183 43.1124 31.8183 43.3403Z" fill="#11140C"/>
</svg>
