<svg width="52" height="52" viewBox="0 0 52 52" fill="none" xmlns="http://www.w3.org/2000/svg">
<path fill-rule="evenodd" clip-rule="evenodd" d="M13 3C7.47715 3 3 7.47715 3 13V39C3 44.5228 7.47715 49 13 49H39C44.5228 49 49 44.5228 49 39V13C49 7.47715 44.5228 3 39 3H13ZM26.4552 17.6385C26.4552 18.8426 27.4313 19.8188 28.6354 19.8188H34.273L26.4552 27.6365L21.4562 22.6375C20.6048 21.7861 19.2244 21.7861 18.3729 22.6375L7.4719 33.5386C6.62048 34.39 6.62048 35.7704 7.4719 36.6219C8.32333 37.4733 9.70376 37.4733 10.5552 36.6219L19.9146 27.2624L24.9136 32.2614C25.765 33.1129 27.1454 33.1129 27.9968 32.2614L37.3563 22.902V28.5396C37.3563 29.7437 38.3324 30.7198 39.5365 30.7198C40.7406 30.7198 41.7167 29.7437 41.7167 28.5396V17.6385C41.7167 16.4344 40.7406 15.4583 39.5365 15.4583H28.6354C27.4313 15.4583 26.4552 16.4344 26.4552 17.6385Z" fill="#FCFC54"/>
</svg>
