<svg width="52" height="52" viewBox="0 0 52 52" fill="none" xmlns="http://www.w3.org/2000/svg">
<path d="M25.9977 1.88879L8.92896 11.7444V31.4556L25.9977 41.3112L43.0709 31.4556V11.7444L25.9977 1.88879Z" fill="#FCFC54" stroke="#11140C" stroke-width="1.53246" stroke-miterlimit="10"/>
<path d="M8.92896 11.7444L25.9977 21.6L43.0709 11.7444" stroke="#11140C" stroke-width="1.53246" stroke-miterlimit="10"/>
<path d="M25.9978 21.6V41.3112" stroke="#11140C" stroke-width="1.53246" stroke-miterlimit="10"/>
<path d="M14.337 20.7482C14.8814 20.4339 14.8811 19.4141 14.3363 18.4705C13.7915 17.5269 12.9085 17.0167 12.3641 17.331C11.8197 17.6453 11.8201 18.6651 12.3649 19.6087C12.9097 20.5524 13.7926 21.0625 14.337 20.7482Z" fill="black"/>
<path d="M22.558 25.4911C23.1024 25.1768 23.1021 24.1571 22.5573 23.2134C22.0125 22.2698 21.1295 21.7596 20.5851 22.074C20.0407 22.3883 20.041 23.408 20.5858 24.3517C21.1306 25.2953 22.0136 25.8054 22.558 25.4911Z" fill="black"/>
<path d="M18.4508 28.2367C18.9952 27.9224 18.9949 26.9027 18.4501 25.959C17.9053 25.0154 17.0223 24.5053 16.4779 24.8196C15.9335 25.1339 15.9338 26.1536 16.4786 27.0973C17.0234 28.0409 17.9064 28.551 18.4508 28.2367Z" fill="black"/>
<path d="M14.3392 30.9823C14.8836 30.668 14.8833 29.6483 14.3385 28.7046C13.7937 27.761 12.9107 27.2509 12.3663 27.5652C11.8219 27.8795 11.8223 28.8992 12.3671 29.8429C12.9119 30.7865 13.7948 31.2967 14.3392 30.9823Z" fill="black"/>
<path d="M22.5599 35.7253C23.1043 35.411 23.104 34.3912 22.5592 33.4476C22.0144 32.5039 21.1314 31.9938 20.587 32.3081C20.0426 32.6224 20.043 33.6422 20.5878 34.5858C21.1326 35.5294 22.0155 36.0396 22.5599 35.7253Z" fill="black"/>
<path d="M35.5204 27.0979C36.0652 26.1543 36.0655 25.1345 35.5211 24.8202C34.9767 24.5059 34.0938 25.0161 33.549 25.9597C33.0041 26.9033 33.0038 27.9231 33.5482 28.2374C34.0926 28.5517 34.9756 28.0415 35.5204 27.0979Z" fill="black"/>
<path d="M17.4587 12.6951C18.5484 12.6951 19.4317 12.1855 19.4317 11.5569C19.4317 10.9283 18.5484 10.4187 17.4587 10.4187C16.3691 10.4187 15.4858 10.9283 15.4858 11.5569C15.4858 12.1855 16.3691 12.6951 17.4587 12.6951Z" fill="black"/>
<path d="M34.5408 13.0656C35.6304 13.0656 36.5137 12.556 36.5137 11.9274C36.5137 11.2988 35.6304 10.7892 34.5408 10.7892C33.4512 10.7892 32.5679 11.2988 32.5679 11.9274C32.5679 12.556 33.4512 13.0656 34.5408 13.0656Z" fill="black"/>
<rect width="37.2667" height="14" transform="translate(7.3667 36.1112)" fill="white"/>
<rect width="37.2667" height="14" transform="translate(7.3667 36.1112)" fill="#9EA889"/>
<path d="M17.6219 46.1112V39.8058H18.7642V45.1537H21.5413V46.1112H17.6219ZM24.5462 46.2036C24.0844 46.2036 23.6842 46.102 23.3455 45.8988C23.0068 45.6956 22.7441 45.4113 22.5573 45.0459C22.3726 44.6806 22.2802 44.2536 22.2802 43.7651C22.2802 43.2766 22.3726 42.8487 22.5573 42.4813C22.7441 42.1139 23.0068 41.8285 23.3455 41.6253C23.6842 41.4221 24.0844 41.3205 24.5462 41.3205C25.0081 41.3205 25.4083 41.4221 25.747 41.6253C26.0856 41.8285 26.3473 42.1139 26.5321 42.4813C26.7189 42.8487 26.8122 43.2766 26.8122 43.7651C26.8122 44.2536 26.7189 44.6806 26.5321 45.0459C26.3473 45.4113 26.0856 45.6956 25.747 45.8988C25.4083 46.102 25.0081 46.2036 24.5462 46.2036ZM24.5524 45.3107C24.8028 45.3107 25.0122 45.2419 25.1805 45.1044C25.3488 44.9649 25.474 44.7781 25.5561 44.5441C25.6402 44.3101 25.6823 44.0494 25.6823 43.7621C25.6823 43.4726 25.6402 43.2109 25.5561 42.977C25.474 42.7409 25.3488 42.5531 25.1805 42.4135C25.0122 42.274 24.8028 42.2042 24.5524 42.2042C24.2958 42.2042 24.0823 42.274 23.912 42.4135C23.7437 42.5531 23.6174 42.7409 23.5333 42.977C23.4512 43.2109 23.4101 43.4726 23.4101 43.7621C23.4101 44.0494 23.4512 44.3101 23.5333 44.5441C23.6174 44.7781 23.7437 44.9649 23.912 45.1044C24.0823 45.2419 24.2958 45.3107 24.5524 45.3107ZM28.5987 46.1112L27.2625 41.3821H28.3986L29.2299 44.7073H29.273L30.1228 41.3821H31.2465L32.0963 44.6888H32.1425L32.9615 41.3821H34.1006L32.7613 46.1112H31.6006L30.7139 42.9154H30.6492L29.7625 46.1112H28.5987Z" fill="#11140C"/>
</svg>
