<svg width="52" height="52" viewBox="0 0 52 52" fill="none" xmlns="http://www.w3.org/2000/svg">
<path d="M25.9977 1.88879L8.92896 11.7444V31.4556L25.9977 41.3112L43.0709 31.4556V11.7444L25.9977 1.88879Z" fill="#FCFC54" stroke="#11140C" stroke-width="1.53246" stroke-miterlimit="10"/>
<path d="M8.92896 11.7444L25.9977 21.6L43.0709 11.7444" stroke="#11140C" stroke-width="1.53246" stroke-miterlimit="10"/>
<path d="M25.9978 21.6V41.3112" stroke="#11140C" stroke-width="1.53246" stroke-miterlimit="10"/>
<path d="M14.337 20.7482C14.8814 20.4339 14.8811 19.4141 14.3363 18.4705C13.7915 17.5269 12.9085 17.0167 12.3641 17.331C11.8197 17.6453 11.8201 18.6651 12.3649 19.6087C12.9097 20.5524 13.7926 21.0625 14.337 20.7482Z" fill="black"/>
<path d="M22.558 25.4911C23.1024 25.1768 23.1021 24.1571 22.5573 23.2134C22.0125 22.2698 21.1295 21.7596 20.5851 22.074C20.0407 22.3883 20.041 23.408 20.5858 24.3517C21.1306 25.2953 22.0136 25.8054 22.558 25.4911Z" fill="black"/>
<path d="M18.4508 28.2367C18.9952 27.9224 18.9949 26.9027 18.4501 25.959C17.9053 25.0154 17.0223 24.5053 16.4779 24.8196C15.9335 25.1339 15.9338 26.1536 16.4786 27.0973C17.0234 28.0409 17.9064 28.551 18.4508 28.2367Z" fill="black"/>
<path d="M14.3392 30.9823C14.8836 30.668 14.8833 29.6483 14.3385 28.7046C13.7937 27.761 12.9107 27.2509 12.3663 27.5652C11.8219 27.8795 11.8223 28.8992 12.3671 29.8429C12.9119 30.7865 13.7948 31.2967 14.3392 30.9823Z" fill="black"/>
<path d="M22.5599 35.7253C23.1043 35.411 23.104 34.3912 22.5592 33.4476C22.0144 32.5039 21.1314 31.9938 20.587 32.3081C20.0426 32.6224 20.043 33.6422 20.5878 34.5858C21.1326 35.5294 22.0155 36.0396 22.5599 35.7253Z" fill="black"/>
<path d="M35.5204 27.0979C36.0652 26.1543 36.0655 25.1345 35.5211 24.8202C34.9767 24.5059 34.0938 25.0161 33.549 25.9597C33.0041 26.9033 33.0038 27.9231 33.5482 28.2374C34.0926 28.5517 34.9756 28.0415 35.5204 27.0979Z" fill="black"/>
<path d="M17.4587 12.6951C18.5484 12.6951 19.4317 12.1855 19.4317 11.5569C19.4317 10.9283 18.5484 10.4187 17.4587 10.4187C16.3691 10.4187 15.4858 10.9283 15.4858 11.5569C15.4858 12.1855 16.3691 12.6951 17.4587 12.6951Z" fill="black"/>
<path d="M34.5408 13.0656C35.6304 13.0656 36.5137 12.556 36.5137 11.9274C36.5137 11.2988 35.6304 10.7892 34.5408 10.7892C33.4512 10.7892 32.5679 11.2988 32.5679 11.9274C32.5679 12.556 33.4512 13.0656 34.5408 13.0656Z" fill="black"/>
<rect width="37.2667" height="14" transform="translate(7.3667 36.1112)" fill="white"/>
<rect width="37.2667" height="14" transform="translate(7.3667 36.1112)" fill="#9EA889"/>
<path d="M23.2562 42.9585C23.2562 43.6379 23.1289 44.2198 22.8744 44.7042C22.622 45.1865 22.2771 45.556 21.8399 45.8126C21.4048 46.0691 20.9111 46.1974 20.359 46.1974C19.8069 46.1974 19.3122 46.0691 18.875 45.8126C18.4399 45.5539 18.095 45.1835 17.8405 44.7011C17.5881 44.2167 17.4618 43.6358 17.4618 42.9585C17.4618 42.2791 17.5881 41.6982 17.8405 41.2159C18.095 40.7315 18.4399 40.361 18.875 40.1044C19.3122 39.8478 19.8069 39.7195 20.359 39.7195C20.9111 39.7195 21.4048 39.8478 21.8399 40.1044C22.2771 40.361 22.622 40.7315 22.8744 41.2159C23.1289 41.6982 23.2562 42.2791 23.2562 42.9585ZM22.1078 42.9585C22.1078 42.4802 22.0329 42.0769 21.883 41.7485C21.7352 41.418 21.53 41.1686 21.2673 41.0003C21.0045 40.83 20.7018 40.7448 20.359 40.7448C20.0162 40.7448 19.7135 40.83 19.4508 41.0003C19.188 41.1686 18.9817 41.418 18.8319 41.7485C18.6841 42.0769 18.6102 42.4802 18.6102 42.9585C18.6102 43.4367 18.6841 43.8411 18.8319 44.1715C18.9817 44.4999 19.188 44.7493 19.4508 44.9197C19.7135 45.088 20.0162 45.1722 20.359 45.1722C20.7018 45.1722 21.0045 45.088 21.2673 44.9197C21.53 44.7493 21.7352 44.4999 21.883 44.1715C22.0329 43.8411 22.1078 43.4367 22.1078 42.9585ZM26.0418 46.1943C25.6703 46.1943 25.3377 46.0989 25.0442 45.908C24.7507 45.7171 24.5188 45.44 24.3484 45.0767C24.178 44.7134 24.0929 44.2721 24.0929 43.7528C24.0929 43.2274 24.1791 42.784 24.3515 42.4228C24.526 42.0595 24.761 41.7854 25.0565 41.6007C25.3521 41.4139 25.6815 41.3205 26.0448 41.3205C26.3219 41.3205 26.5498 41.3677 26.7283 41.4622C26.9069 41.5545 27.0485 41.6664 27.1532 41.7978C27.2579 41.9271 27.339 42.0492 27.3965 42.1641H27.4426V39.8058H28.5603V46.1112H27.4642V45.3661H27.3965C27.339 45.4811 27.2559 45.6032 27.1471 45.7325C27.0383 45.8598 26.8946 45.9686 26.716 46.0589C26.5375 46.1492 26.3127 46.1943 26.0418 46.1943ZM26.3527 45.2799C26.5888 45.2799 26.7899 45.2163 26.9562 45.089C27.1224 44.9597 27.2487 44.7801 27.3349 44.5502C27.4211 44.3204 27.4642 44.0525 27.4642 43.7467C27.4642 43.4408 27.4211 43.175 27.3349 42.9492C27.2507 42.7235 27.1255 42.548 26.9593 42.4228C26.7951 42.2976 26.5929 42.235 26.3527 42.235C26.1044 42.235 25.8971 42.2996 25.7308 42.4289C25.5646 42.5582 25.4393 42.7368 25.3552 42.9646C25.271 43.1925 25.229 43.4531 25.229 43.7467C25.229 44.0422 25.271 44.306 25.3552 44.5379C25.4414 44.7678 25.5676 44.9495 25.7339 45.0829C25.9022 45.2142 26.1085 45.2799 26.3527 45.2799ZM31.5029 46.1943C31.1313 46.1943 30.7988 46.0989 30.5053 45.908C30.2118 45.7171 29.9799 45.44 29.8095 45.0767C29.6391 44.7134 29.554 44.2721 29.554 43.7528C29.554 43.2274 29.6402 42.784 29.8126 42.4228C29.987 42.0595 30.2221 41.7854 30.5176 41.6007C30.8132 41.4139 31.1426 41.3205 31.5059 41.3205C31.783 41.3205 32.0109 41.3677 32.1894 41.4622C32.368 41.5545 32.5096 41.6664 32.6143 41.7978C32.719 41.9271 32.8001 42.0492 32.8575 42.1641H32.9037V39.8058H34.0213V46.1112H32.9253V45.3661H32.8575C32.8001 45.4811 32.7169 45.6032 32.6082 45.7325C32.4994 45.8598 32.3557 45.9686 32.1771 46.0589C31.9985 46.1492 31.7738 46.1943 31.5029 46.1943ZM31.8138 45.2799C32.0499 45.2799 32.251 45.2163 32.4173 45.089C32.5835 44.9597 32.7098 44.7801 32.796 44.5502C32.8822 44.3204 32.9253 44.0525 32.9253 43.7467C32.9253 43.4408 32.8822 43.175 32.796 42.9492C32.7118 42.7235 32.5866 42.548 32.4203 42.4228C32.2561 42.2976 32.054 42.235 31.8138 42.235C31.5655 42.235 31.3581 42.2996 31.1919 42.4289C31.0256 42.5582 30.9004 42.7368 30.8163 42.9646C30.7321 43.1925 30.69 43.4531 30.69 43.7467C30.69 44.0422 30.7321 44.306 30.8163 44.5379C30.9025 44.7678 31.0287 44.9495 31.195 45.0829C31.3633 45.2142 31.5696 45.2799 31.8138 45.2799Z" fill="#11140C"/>
</svg>
