<svg width="52" height="52" viewBox="0 0 52 52" fill="none" xmlns="http://www.w3.org/2000/svg">
<path fill-rule="evenodd" clip-rule="evenodd" d="M3.25 13.8125C3.25 11.5688 5.06884 9.75 7.3125 9.75H44.6875C46.9312 9.75 48.75 11.5688 48.75 13.8125V20.3696C48.75 20.9497 48.4408 21.4857 47.9387 21.7762C46.4773 22.6216 45.5 24.1976 45.5 26C45.5 27.8024 46.4773 29.3784 47.9387 30.2238C48.4408 30.5143 48.75 31.0503 48.75 31.6304V38.1875C48.75 40.4312 46.9312 42.25 44.6875 42.25H7.3125C5.06884 42.25 3.25 40.4312 3.25 38.1875V31.6304C3.25 31.0503 3.55921 30.5143 4.06132 30.2238C5.5227 29.3784 6.5 27.8024 6.5 26C6.5 24.1976 5.5227 22.6216 4.06132 21.7762C3.55921 21.4857 3.25 20.9497 3.25 20.3696V13.8125ZM35.75 11.375C36.6475 11.375 37.375 12.1025 37.375 13V14.625C37.375 15.5225 36.6475 16.25 35.75 16.25C34.8525 16.25 34.125 15.5225 34.125 14.625V13C34.125 12.1025 34.8525 11.375 35.75 11.375ZM37.375 21.125C37.375 20.2275 36.6475 19.5 35.75 19.5C34.8525 19.5 34.125 20.2275 34.125 21.125V22.75C34.125 23.6475 34.8525 24.375 35.75 24.375C36.6475 24.375 37.375 23.6475 37.375 22.75V21.125ZM35.75 27.625C36.6475 27.625 37.375 28.3525 37.375 29.25V30.875C37.375 31.7725 36.6475 32.5 35.75 32.5C34.8525 32.5 34.125 31.7725 34.125 30.875V29.25C34.125 28.3525 34.8525 27.625 35.75 27.625ZM37.375 37.375C37.375 36.4775 36.6475 35.75 35.75 35.75C34.8525 35.75 34.125 36.4775 34.125 37.375V39C34.125 39.8975 34.8525 40.625 35.75 40.625C36.6475 40.625 37.375 39.8975 37.375 39V37.375ZM13 26C13 25.1025 13.7275 24.375 14.625 24.375H26C26.8975 24.375 27.625 25.1025 27.625 26C27.625 26.8975 26.8975 27.625 26 27.625H14.625C13.7275 27.625 13 26.8975 13 26ZM14.625 30.875C13.7275 30.875 13 31.6025 13 32.5C13 33.3975 13.7275 34.125 14.625 34.125H21.125C22.0225 34.125 22.75 33.3975 22.75 32.5C22.75 31.6025 22.0225 30.875 21.125 30.875H14.625Z" fill="#FCFC54"/>
</svg>
