<svg width="52" height="52" viewBox="0 0 52 52" fill="none" xmlns="http://www.w3.org/2000/svg">
<path d="M25.9977 1.88867L8.92896 11.7443V31.4555L25.9977 41.3111L43.0709 31.4555V11.7443L25.9977 1.88867Z" fill="white" stroke="black" stroke-width="1.53246" stroke-miterlimit="10"/>
<path d="M8.92896 11.7441L25.9977 21.5997L43.0709 11.7441" stroke="black" stroke-width="1.53246" stroke-miterlimit="10"/>
<path d="M25.9977 21.5999V41.3111" stroke="black" stroke-width="1.53246" stroke-miterlimit="10"/>
<path d="M14.3372 20.748C14.8816 20.4337 14.8812 19.4139 14.3364 18.4703C13.7916 17.5266 12.9087 17.0165 12.3643 17.3308C11.8199 17.6451 11.8202 18.6649 12.365 19.6085C12.9098 20.5521 13.7928 21.0623 14.3372 20.748Z" fill="black"/>
<path d="M22.558 25.4909C23.1024 25.1766 23.1021 24.1568 22.5573 23.2132C22.0125 22.2696 21.1295 21.7594 20.5851 22.0737C20.0407 22.388 20.041 23.4078 20.5858 24.3514C21.1306 25.295 22.0136 25.8052 22.558 25.4909Z" fill="black"/>
<path d="M18.4508 28.2365C18.9952 27.9222 18.9949 26.9024 18.4501 25.9588C17.9053 25.0152 17.0223 24.505 16.4779 24.8193C15.9335 25.1336 15.9338 26.1534 16.4786 27.097C17.0234 28.0406 17.9064 28.5508 18.4508 28.2365Z" fill="black"/>
<path d="M14.3394 30.9821C14.8838 30.6678 14.8834 29.648 14.3386 28.7044C13.7938 27.7608 12.9109 27.2506 12.3665 27.5649C11.8221 27.8792 11.8224 28.899 12.3672 29.8426C12.912 30.7862 13.795 31.2964 14.3394 30.9821Z" fill="black"/>
<path d="M22.5602 35.725C23.1046 35.4107 23.1043 34.391 22.5595 33.4473C22.0147 32.5037 21.1317 31.9935 20.5873 32.3078C20.0429 32.6222 20.0432 33.6419 20.588 34.5855C21.1328 35.5292 22.0158 36.0393 22.5602 35.725Z" fill="black"/>
<path d="M35.5204 27.0978C36.0652 26.1542 36.0655 25.1345 35.5211 24.8201C34.9767 24.5058 34.0938 25.016 33.549 25.9596C33.0041 26.9033 33.0038 27.923 33.5482 28.2373C34.0926 28.5516 34.9756 28.0415 35.5204 27.0978Z" fill="black"/>
<path d="M17.4589 12.6951C18.5485 12.6951 19.4318 12.1855 19.4318 11.5569C19.4318 10.9283 18.5485 10.4187 17.4589 10.4187C16.3693 10.4187 15.486 10.9283 15.486 11.5569C15.486 12.1855 16.3693 12.6951 17.4589 12.6951Z" fill="black"/>
<path d="M34.541 13.0655C35.6306 13.0655 36.5139 12.5559 36.5139 11.9273C36.5139 11.2987 35.6306 10.7891 34.541 10.7891C33.4514 10.7891 32.5681 11.2987 32.5681 11.9273C32.5681 12.5559 33.4514 13.0655 34.541 13.0655Z" fill="black"/>
<rect width="37.2667" height="14" transform="translate(7.3667 36.1113)" fill="white"/>
<rect width="37.2667" height="14" transform="translate(7.3667 36.1113)" fill="url(#paint0_linear_1507_1831)"/>
<path d="M23.2562 42.9586C23.2562 43.638 23.1289 44.2199 22.8744 44.7043C22.622 45.1867 22.2771 45.5561 21.8399 45.8127C21.4048 46.0693 20.9111 46.1975 20.359 46.1975C19.8069 46.1975 19.3122 46.0693 18.875 45.8127C18.4399 45.5541 18.095 45.1836 17.8405 44.7012C17.5881 44.2168 17.4618 43.6359 17.4618 42.9586C17.4618 42.2792 17.5881 41.6983 17.8405 41.216C18.095 40.7316 18.4399 40.3611 18.875 40.1045C19.3122 39.848 19.8069 39.7197 20.359 39.7197C20.9111 39.7197 21.4048 39.848 21.8399 40.1045C22.2771 40.3611 22.622 40.7316 22.8744 41.216C23.1289 41.6983 23.2562 42.2792 23.2562 42.9586ZM22.1078 42.9586C22.1078 42.4804 22.0329 42.077 21.883 41.7486C21.7352 41.4182 21.53 41.1688 21.2673 41.0005C21.0045 40.8301 20.7018 40.7449 20.359 40.7449C20.0162 40.7449 19.7135 40.8301 19.4508 41.0005C19.188 41.1688 18.9817 41.4182 18.8319 41.7486C18.6841 42.077 18.6102 42.4804 18.6102 42.9586C18.6102 43.4368 18.6841 43.8412 18.8319 44.1717C18.9817 44.5001 19.188 44.7495 19.4508 44.9198C19.7135 45.0881 20.0162 45.1723 20.359 45.1723C20.7018 45.1723 21.0045 45.0881 21.2673 44.9198C21.53 44.7495 21.7352 44.5001 21.883 44.1717C22.0329 43.8412 22.1078 43.4368 22.1078 42.9586ZM26.0418 46.1945C25.6703 46.1945 25.3377 46.099 25.0442 45.9081C24.7507 45.7172 24.5188 45.4401 24.3484 45.0768C24.178 44.7135 24.0929 44.2722 24.0929 43.7529C24.0929 43.2275 24.1791 42.7841 24.3515 42.4229C24.526 42.0596 24.761 41.7856 25.0565 41.6008C25.3521 41.4141 25.6815 41.3207 26.0448 41.3207C26.3219 41.3207 26.5498 41.3679 26.7283 41.4623C26.9069 41.5547 27.0485 41.6665 27.1532 41.7979C27.2579 41.9272 27.339 42.0493 27.3965 42.1643H27.4426V39.8059H28.5603V46.1113H27.4642V45.3662H27.3965C27.339 45.4812 27.2559 45.6033 27.1471 45.7326C27.0383 45.8599 26.8946 45.9687 26.716 46.059C26.5375 46.1493 26.3127 46.1945 26.0418 46.1945ZM26.3527 45.28C26.5888 45.28 26.7899 45.2164 26.9562 45.0892C27.1224 44.9598 27.2487 44.7802 27.3349 44.5504C27.4211 44.3205 27.4642 44.0526 27.4642 43.7468C27.4642 43.441 27.4211 43.1751 27.3349 42.9494C27.2507 42.7236 27.1255 42.5481 26.9593 42.4229C26.7951 42.2977 26.5929 42.2351 26.3527 42.2351C26.1044 42.2351 25.8971 42.2997 25.7308 42.429C25.5646 42.5584 25.4393 42.7369 25.3552 42.9648C25.271 43.1926 25.229 43.4533 25.229 43.7468C25.229 44.0424 25.271 44.3061 25.3552 44.538C25.4414 44.7679 25.5676 44.9496 25.7339 45.083C25.9022 45.2144 26.1085 45.28 26.3527 45.28ZM31.5029 46.1945C31.1313 46.1945 30.7988 46.099 30.5053 45.9081C30.2118 45.7172 29.9799 45.4401 29.8095 45.0768C29.6391 44.7135 29.554 44.2722 29.554 43.7529C29.554 43.2275 29.6402 42.7841 29.8126 42.4229C29.987 42.0596 30.2221 41.7856 30.5176 41.6008C30.8132 41.4141 31.1426 41.3207 31.5059 41.3207C31.783 41.3207 32.0109 41.3679 32.1894 41.4623C32.368 41.5547 32.5096 41.6665 32.6143 41.7979C32.719 41.9272 32.8001 42.0493 32.8575 42.1643H32.9037V39.8059H34.0213V46.1113H32.9253V45.3662H32.8575C32.8001 45.4812 32.7169 45.6033 32.6082 45.7326C32.4994 45.8599 32.3557 45.9687 32.1771 46.059C31.9985 46.1493 31.7738 46.1945 31.5029 46.1945ZM31.8138 45.28C32.0499 45.28 32.251 45.2164 32.4173 45.0892C32.5835 44.9598 32.7098 44.7802 32.796 44.5504C32.8822 44.3205 32.9253 44.0526 32.9253 43.7468C32.9253 43.441 32.8822 43.1751 32.796 42.9494C32.7118 42.7236 32.5866 42.5481 32.4203 42.4229C32.2561 42.2977 32.054 42.2351 31.8138 42.2351C31.5655 42.2351 31.3581 42.2997 31.1919 42.429C31.0256 42.5584 30.9004 42.7369 30.8163 42.9648C30.7321 43.1926 30.69 43.4533 30.69 43.7468C30.69 44.0424 30.7321 44.3061 30.8163 44.538C30.9025 44.7679 31.0287 44.9496 31.195 45.083C31.3633 45.2144 31.5696 45.28 31.8138 45.28Z" fill="white"/>
<defs>
<linearGradient id="paint0_linear_1507_1831" x1="47.2531" y1="6.9998" x2="25.9178" y2="6.9998" gradientUnits="userSpaceOnUse">
<stop stop-color="white"/>
<stop offset="1"/>
</linearGradient>
</defs>
</svg>
