<svg width="52" height="52" viewBox="0 0 52 52" fill="none" xmlns="http://www.w3.org/2000/svg">
<path d="M34.1245 17.875C35.022 17.875 35.7495 18.6025 35.7495 19.5C35.7495 21.9269 34.6834 24.1069 32.9993 25.5933C32.3264 26.1872 31.2995 26.1232 30.7056 25.4503C30.1118 24.7775 30.1758 23.7506 30.8487 23.1567C31.8634 22.261 32.4995 20.9558 32.4995 19.5C32.4995 18.6025 33.227 17.875 34.1245 17.875Z" fill="url(#paint0_linear_1507_1779)"/>
<path fill-rule="evenodd" clip-rule="evenodd" d="M26 4.875C14.333 4.875 4.875 14.333 4.875 26C4.875 37.667 14.333 47.125 26 47.125C37.667 47.125 47.125 37.667 47.125 26C47.125 14.333 37.667 4.875 26 4.875ZM9.91228 33.8004C12.8092 39.7641 18.9245 43.875 26 43.875C27.4349 43.875 28.8303 43.7059 30.1674 43.3866C29.5456 41.7307 27.9595 40.625 26.1794 40.625C25.1382 40.625 24.2495 39.8722 24.0784 38.8451L23.9203 37.8966C23.7165 36.6738 24.463 35.4927 25.655 35.1522L27.7972 34.5401C28.7229 34.2756 29.4951 33.6347 29.9257 32.7736L30.0048 32.6154C30.5381 31.5488 31.6283 30.875 32.8209 30.875C33.6559 30.875 34.4567 31.2067 35.0472 31.7972L35.75 32.5H37.1113C38.9282 32.5 40.5687 33.5067 41.4068 35.0691C42.9752 32.4104 43.875 29.3103 43.875 26C43.875 16.6872 36.7533 9.03786 27.6589 8.20096C27.7549 8.77072 28.0514 9.29284 28.5021 9.66838L30.8174 11.5978C31.7743 12.3953 31.976 13.786 31.285 14.8224L30.1778 16.4833C29.5765 17.3853 28.6916 18.0611 27.6632 18.4039L27.355 18.5067C25.8542 19.0069 25.2399 20.7973 26.1174 22.1136C26.9179 23.3144 26.4849 24.9451 25.1941 25.5904L19.5 28.4375L20.4174 30.7309C20.8173 31.7308 20.3841 32.8705 19.4208 33.3521C18.5256 33.7997 17.4385 33.543 16.8381 32.7424L15.3664 30.7802C14.2792 29.3306 12.0466 29.5319 11.2362 31.1526L9.91228 33.8004Z" fill="url(#paint1_linear_1507_1779)"/>
<defs>
<linearGradient id="paint0_linear_1507_1779" x1="58.4468" y1="25.9994" x2="34.2585" y2="25.9994" gradientUnits="userSpaceOnUse">
<stop stop-color="white"/>
<stop offset="1"/>
</linearGradient>
<linearGradient id="paint1_linear_1507_1779" x1="58.4468" y1="25.9994" x2="34.2585" y2="25.9994" gradientUnits="userSpaceOnUse">
<stop stop-color="white"/>
<stop offset="1"/>
</linearGradient>
</defs>
</svg>
