<svg xmlns="http://www.w3.org/2000/svg" width="60" height="60" viewBox="0 0 60 60" fill="none">
  <g filter="url(#filter0_i_1740_24764)">
    <path fill-rule="evenodd" clip-rule="evenodd" d="M18.7546 15H28.1191L28.125 15H36.5746C41.2288 15.0067 44.9997 18.7817 44.9997 23.4375V46.875C49.1419 46.875 52.4997 43.5171 52.4997 39.375V15.2705C52.4997 11.507 49.6878 8.2415 45.8396 7.9221C45.2802 7.87567 44.7197 7.83302 44.1581 7.79417C42.9083 5.39119 40.3958 3.75 37.5 3.75H33.75C30.8542 3.75 28.3417 5.39117 27.0919 7.79413C26.5302 7.83299 25.9695 7.87565 25.4098 7.9221C21.6541 8.23382 18.8855 11.3517 18.7546 15ZM33.75 7.5C31.6789 7.5 30 9.17893 30 11.25H41.25C41.25 9.17893 39.5711 7.5 37.5 7.5H33.75Z" fill="#FCFC54"/>
    <path fill-rule="evenodd" clip-rule="evenodd" d="M7.5 23.4375C7.5 20.8487 9.59867 18.75 12.1875 18.75H36.5625C39.1513 18.75 41.25 20.8487 41.25 23.4375V51.5625C41.25 54.1513 39.1513 56.25 36.5625 56.25H12.1875C9.59867 56.25 7.5 54.1513 7.5 51.5625V23.4375ZM15 30C15 28.9645 15.8395 28.125 16.875 28.125H16.8938C17.9293 28.125 18.7687 28.9645 18.7687 30V30.0188C18.7687 31.0543 17.9293 31.8938 16.8938 31.8938H16.875C15.8395 31.8938 15 31.0543 15 30.0188V30ZM20.625 30C20.625 28.9645 21.4645 28.125 22.5 28.125H31.875C32.9105 28.125 33.75 28.9645 33.75 30C33.75 31.0355 32.9105 31.875 31.875 31.875H22.5C21.4645 31.875 20.625 31.0355 20.625 30ZM15 37.5C15 36.4645 15.8395 35.625 16.875 35.625H16.8938C17.9293 35.625 18.7687 36.4645 18.7687 37.5V37.5187C18.7687 38.5543 17.9293 39.3937 16.8938 39.3937H16.875C15.8395 39.3937 15 38.5543 15 37.5187V37.5ZM20.625 37.5C20.625 36.4645 21.4645 35.625 22.5 35.625H31.875C32.9105 35.625 33.75 36.4645 33.75 37.5C33.75 38.5355 32.9105 39.375 31.875 39.375H22.5C21.4645 39.375 20.625 38.5355 20.625 37.5ZM15 45C15 43.9645 15.8395 43.125 16.875 43.125H16.8938C17.9293 43.125 18.7687 43.9645 18.7687 45V45.0187C18.7687 46.0543 17.9293 46.8937 16.8938 46.8937H16.875C15.8395 46.8937 15 46.0543 15 45.0187V45ZM20.625 45C20.625 43.9645 21.4645 43.125 22.5 43.125H31.875C32.9105 43.125 33.75 43.9645 33.75 45C33.75 46.0355 32.9105 46.875 31.875 46.875H22.5C21.4645 46.875 20.625 46.0355 20.625 45Z" fill="#FCFC54"/>
  </g>
  <defs>
    <filter id="filter0_i_1740_24764" x="7.5" y="3.75" width="44.9998" height="54.5" filterUnits="userSpaceOnUse" color-interpolation-filters="sRGB">
      <feFlood flood-opacity="0" result="BackgroundImageFix"/>
      <feBlend mode="normal" in="SourceGraphic" in2="BackgroundImageFix" result="shape"/>
      <feColorMatrix in="SourceAlpha" type="matrix" values="0 0 0 0 0 0 0 0 0 0 0 0 0 0 0 0 0 0 127 0" result="hardAlpha"/>
      <feOffset dy="2"/>
      <feGaussianBlur stdDeviation="1"/>
      <feComposite in2="hardAlpha" operator="arithmetic" k2="-1" k3="1"/>
      <feColorMatrix type="matrix" values="0 0 0 0 0 0 0 0 0 0 0 0 0 0 0 0 0 0 0.4 0"/>
      <feBlend mode="normal" in2="shape" result="effect1_innerShadow_1740_24764"/>
    </filter>
  </defs>
</svg>