<svg xmlns="http://www.w3.org/2000/svg" width="60" height="59" viewBox="0 0 60 59" fill="none">
  <g filter="url(#filter0_i_1439_2732)">
    <path fill-rule="evenodd" clip-rule="evenodd" d="M27.6947 5.77881C25.4033 5.77881 23.4477 7.43543 23.071 9.69569L22.6244 12.3756C22.574 12.6779 22.3385 13.0283 21.8828 13.2475C21.0226 13.6611 20.1992 14.1383 19.4185 14.6728C19.0023 14.9578 18.5815 14.9868 18.2942 14.8792L15.7463 13.9246C13.6005 13.1208 11.188 13.986 10.0423 15.9705L7.73734 19.9628C6.59162 21.9472 7.04851 24.4691 8.81759 25.9255L10.9189 27.6553C11.1555 27.8501 11.3407 28.2284 11.303 28.7306C11.2677 29.2007 11.2497 29.6753 11.2497 30.1538C11.2497 30.6325 11.2677 31.1073 11.303 31.5775C11.3408 32.0798 11.1555 32.4581 10.9189 32.6529L8.81759 34.3828C7.04851 35.8391 6.59162 38.361 7.73734 40.3455L10.0423 44.3378C11.188 46.3222 13.6005 47.1875 15.7463 46.3836L18.2948 45.4288C18.582 45.3212 19.0028 45.3502 19.419 45.6352C20.1996 46.1695 21.0228 46.6466 21.8828 47.0601C22.3385 47.2793 22.574 47.6297 22.6244 47.932L23.071 50.6119C23.4477 52.8722 25.4033 54.5288 27.6947 54.5288H32.3046C34.5961 54.5288 36.5517 52.8722 36.9284 50.6119L37.375 47.932C37.4254 47.6297 37.6608 47.2793 38.1166 47.0601C38.9768 46.6465 39.8002 46.1693 40.5809 45.6348C40.9971 45.3498 41.4179 45.3208 41.7052 45.4284L44.2531 46.383C46.3989 47.1869 48.8114 46.3216 49.9571 44.3372L52.2621 40.3449C53.4078 38.3604 52.9509 35.8385 51.1818 34.3822L49.0805 32.6523C48.8439 32.4575 48.6586 32.0793 48.6964 31.577C48.7317 31.1069 48.7497 30.6323 48.7497 30.1538C48.7497 29.6752 48.7317 29.2004 48.6964 28.7301C48.6586 28.2278 48.8439 27.8495 49.0804 27.6548L51.1818 25.9249C52.9509 24.4685 53.4078 21.9466 52.2621 19.9622L49.9571 15.9699C48.8114 13.9854 46.3989 13.1201 44.2531 13.924L41.7046 14.8788C41.4174 14.9864 40.9966 14.9574 40.5804 14.6725C39.7998 14.1381 38.9766 13.661 38.1166 13.2475C37.6608 13.0283 37.4254 12.6779 37.375 12.3756L36.9284 9.69569C36.5517 7.43543 34.5961 5.77881 32.3046 5.77881H27.6947ZM30 39.5288C35.1777 39.5288 39.375 35.3315 39.375 30.1538C39.375 24.9761 35.1777 20.7788 30 20.7788C24.8223 20.7788 20.625 24.9761 20.625 30.1538C20.625 35.3315 24.8223 39.5288 30 39.5288Z" fill="#FCFC54"/>
  </g>
  <defs>
    <filter id="filter0_i_1439_2732" x="7.10907" y="5.77881" width="45.7812" height="50.75" filterUnits="userSpaceOnUse" color-interpolation-filters="sRGB">
      <feFlood flood-opacity="0" result="BackgroundImageFix"/>
      <feBlend mode="normal" in="SourceGraphic" in2="BackgroundImageFix" result="shape"/>
      <feColorMatrix in="SourceAlpha" type="matrix" values="0 0 0 0 0 0 0 0 0 0 0 0 0 0 0 0 0 0 127 0" result="hardAlpha"/>
      <feOffset dy="2"/>
      <feGaussianBlur stdDeviation="1"/>
      <feComposite in2="hardAlpha" operator="arithmetic" k2="-1" k3="1"/>
      <feColorMatrix type="matrix" values="0 0 0 0 0 0 0 0 0 0 0 0 0 0 0 0 0 0 0.4 0"/>
      <feBlend mode="normal" in2="shape" result="effect1_innerShadow_1439_2732"/>
    </filter>
  </defs>
</svg>