<svg xmlns="http://www.w3.org/2000/svg" width="60" height="60" viewBox="0 0 60 60" fill="none">
  <g filter="url(#filter0_i_1439_2719)">
    <path d="M14.5105 9C13.3739 9 12.2838 9.45153 11.4801 10.2553L8.51051 13.2248C5.16316 16.5722 5.16316 21.9993 8.51051 25.3466C11.5669 28.403 16.3571 28.6687 19.7149 26.1437C21.1467 27.2186 22.928 27.8571 24.8571 27.8571C26.7866 27.8571 28.5681 27.2184 30 26.1432C31.4319 27.2184 33.2134 27.8571 35.1429 27.8571C37.072 27.8571 38.8533 27.2186 40.2851 26.1437C43.6429 28.6687 48.4331 28.403 51.4895 25.3466C54.8368 21.9993 54.8368 16.5722 51.4895 13.2248L48.52 10.2553C47.7162 9.45154 46.6261 9.00001 45.4895 9.00001L14.5105 9Z" fill="#FCFC54"/>
    <path fill-rule="evenodd" clip-rule="evenodd" d="M9.42857 50.1429V30.1317C12.6748 31.671 16.4683 31.6699 19.7153 30.13C21.2746 30.8703 23.0197 31.2857 24.8571 31.2857C26.695 31.2857 28.4404 30.8701 30 30.1295C31.5596 30.8701 33.305 31.2857 35.1429 31.2857C36.9803 31.2857 38.7254 30.8703 40.2847 30.13C43.5317 31.6699 47.3252 31.671 50.5714 30.1317V50.1429H52.2857C53.2325 50.1429 54 50.9104 54 51.8572C54 52.8039 53.2325 53.5714 52.2857 53.5714H7.71428C6.76751 53.5714 6 52.8039 6 51.8572C6 50.9104 6.76751 50.1429 7.71429 50.1429H9.42857ZM16.2857 36.4286C16.2857 35.4818 17.0532 34.7143 18 34.7143H24.8571C25.8039 34.7143 26.5714 35.4818 26.5714 36.4286V43.2857C26.5714 44.2325 25.8039 45 24.8571 45H18C17.0532 45 16.2857 44.2325 16.2857 43.2857V36.4286ZM35.1429 34.7143C34.1961 34.7143 33.4286 35.4818 33.4286 36.4286V48.4286C33.4286 49.3753 34.1961 50.1429 35.1429 50.1429H42C42.9468 50.1429 43.7143 49.3753 43.7143 48.4286V36.4286C43.7143 35.4818 42.9468 34.7143 42 34.7143H35.1429Z" fill="#FCFC54"/>
  </g>
  <defs>
    <filter id="filter0_i_1439_2719" x="6" y="9" width="48" height="46.5714" filterUnits="userSpaceOnUse" color-interpolation-filters="sRGB">
      <feFlood flood-opacity="0" result="BackgroundImageFix"/>
      <feBlend mode="normal" in="SourceGraphic" in2="BackgroundImageFix" result="shape"/>
      <feColorMatrix in="SourceAlpha" type="matrix" values="0 0 0 0 0 0 0 0 0 0 0 0 0 0 0 0 0 0 127 0" result="hardAlpha"/>
      <feOffset dy="2"/>
      <feGaussianBlur stdDeviation="1"/>
      <feComposite in2="hardAlpha" operator="arithmetic" k2="-1" k3="1"/>
      <feColorMatrix type="matrix" values="0 0 0 0 0 0 0 0 0 0 0 0 0 0 0 0 0 0 0.4 0"/>
      <feBlend mode="normal" in2="shape" result="effect1_innerShadow_1439_2719"/>
    </filter>
  </defs>
</svg>