<svg xmlns="http://www.w3.org/2000/svg" width="60" height="60" viewBox="0 0 60 60" fill="none">
<path d="M14.5105 8C13.3739 8 12.2838 8.45153 11.4801 9.25526L8.51051 12.2248C5.16316 15.5722 5.16316 20.9993 8.51051 24.3466C11.5669 27.403 16.3571 27.6687 19.7149 25.1437C21.1467 26.2186 22.928 26.8571 24.8571 26.8571C26.7866 26.8571 28.5681 26.2184 30 25.1432C31.4319 26.2184 33.2134 26.8571 35.1429 26.8571C37.072 26.8571 38.8533 26.2186 40.2851 25.1437C43.6429 27.6687 48.4331 27.403 51.4895 24.3466C54.8368 20.9993 54.8368 15.5722 51.4895 12.2248L48.52 9.25527C47.7162 8.45154 46.6261 8.00001 45.4895 8.00001L14.5105 8Z" fill="#FCFC54"/>
<path fill-rule="evenodd" clip-rule="evenodd" d="M9.42857 49.1429V29.1317C12.6748 30.671 16.4683 30.6699 19.7153 29.13C21.2746 29.8703 23.0197 30.2857 24.8571 30.2857C26.695 30.2857 28.4404 29.8701 30 29.1295C31.5596 29.8701 33.305 30.2857 35.1429 30.2857C36.9803 30.2857 38.7254 29.8703 40.2847 29.13C43.5317 30.6699 47.3252 30.671 50.5714 29.1317V49.1429H52.2857C53.2325 49.1429 54 49.9104 54 50.8572C54 51.8039 53.2325 52.5714 52.2857 52.5714H7.71428C6.76751 52.5714 6 51.8039 6 50.8572C6 49.9104 6.76751 49.1429 7.71429 49.1429H9.42857ZM16.2857 35.4286C16.2857 34.4818 17.0532 33.7143 18 33.7143H24.8571C25.8039 33.7143 26.5714 34.4818 26.5714 35.4286V42.2857C26.5714 43.2325 25.8039 44 24.8571 44H18C17.0532 44 16.2857 43.2325 16.2857 42.2857V35.4286ZM35.1429 33.7143C34.1961 33.7143 33.4286 34.4818 33.4286 35.4286V47.4286C33.4286 48.3753 34.1961 49.1429 35.1429 49.1429H42C42.9468 49.1429 43.7143 48.3753 43.7143 47.4286V35.4286C43.7143 34.4818 42.9468 33.7143 42 33.7143H35.1429Z" fill="#FCFC54"/>
</svg>