<svg xmlns="http://www.w3.org/2000/svg" width="60" height="60" viewBox="0 0 60 60" fill="none">
  <path fill-rule="evenodd" clip-rule="evenodd" d="M3.75 15.9375C3.75 13.3487 5.84867 11.25 8.4375 11.25H51.5625C54.1513 11.25 56.25 13.3487 56.25 15.9375V23.5034C56.25 24.1727 55.8932 24.7912 55.3139 25.1264C53.6277 26.1018 52.5 27.9203 52.5 30C52.5 32.0797 53.6277 33.8982 55.3139 34.8736C55.8932 35.2088 56.25 35.8273 56.25 36.4966V44.0625C56.25 46.6513 54.1513 48.75 51.5625 48.75H8.4375C5.84866 48.75 3.75 46.6513 3.75 44.0625V36.4966C3.75 35.8273 4.10678 35.2088 4.68614 34.8736C6.37235 33.8982 7.5 32.0797 7.5 30C7.5 27.9203 6.37235 26.1018 4.68614 25.1264C4.10678 24.7912 3.75 24.1727 3.75 23.5034V15.9375ZM41.25 13.125C42.2855 13.125 43.125 13.9645 43.125 15V16.875C43.125 17.9105 42.2855 18.75 41.25 18.75C40.2145 18.75 39.375 17.9105 39.375 16.875V15C39.375 13.9645 40.2145 13.125 41.25 13.125ZM43.125 24.375C43.125 23.3395 42.2855 22.5 41.25 22.5C40.2145 22.5 39.375 23.3395 39.375 24.375V26.25C39.375 27.2855 40.2145 28.125 41.25 28.125C42.2855 28.125 43.125 27.2855 43.125 26.25V24.375ZM41.25 31.875C42.2855 31.875 43.125 32.7145 43.125 33.75V35.625C43.125 36.6605 42.2855 37.5 41.25 37.5C40.2145 37.5 39.375 36.6605 39.375 35.625V33.75C39.375 32.7145 40.2145 31.875 41.25 31.875ZM43.125 43.125C43.125 42.0895 42.2855 41.25 41.25 41.25C40.2145 41.25 39.375 42.0895 39.375 43.125V45C39.375 46.0355 40.2145 46.875 41.25 46.875C42.2855 46.875 43.125 46.0355 43.125 45V43.125ZM15 30C15 28.9645 15.8395 28.125 16.875 28.125H30C31.0355 28.125 31.875 28.9645 31.875 30C31.875 31.0355 31.0355 31.875 30 31.875H16.875C15.8395 31.875 15 31.0355 15 30ZM16.875 35.625C15.8395 35.625 15 36.4645 15 37.5C15 38.5355 15.8395 39.375 16.875 39.375H24.375C25.4105 39.375 26.25 38.5355 26.25 37.5C26.25 36.4645 25.4105 35.625 24.375 35.625H16.875Z" fill="#FCFC54"/>
</svg>