<svg xmlns="http://www.w3.org/2000/svg" width="60" height="60" viewBox="0 0 60 60" fill="none">
  <g filter="url(#filter0_i_1439_2725)">
    <path d="M8.4375 7.5C5.84867 7.5 3.75 9.59867 3.75 12.1875V14.0625C3.75 16.6513 5.84866 18.75 8.4375 18.75H51.5625C54.1513 18.75 56.25 16.6513 56.25 14.0625V12.1875C56.25 9.59867 54.1513 7.5 51.5625 7.5H8.4375Z" fill="#FCFC54"/>
    <path fill-rule="evenodd" clip-rule="evenodd" d="M7.71698 22.5L9.06642 45.4404C9.29961 49.4046 12.5824 52.5 16.5535 52.5H43.4458C47.4169 52.5 50.6997 49.4046 50.9329 45.4404L52.2823 22.5H7.71698ZM23.1244 31.875C23.1244 30.8395 23.9639 30 24.9994 30H34.9994C36.0349 30 36.8744 30.8395 36.8744 31.875C36.8744 32.9105 36.0349 33.75 34.9994 33.75H24.9994C23.9639 33.75 23.1244 32.9105 23.1244 31.875Z" fill="#FCFC54"/>
  </g>
  <defs>
    <filter id="filter0_i_1439_2725" x="3.75" y="7.5" width="52.5" height="47" filterUnits="userSpaceOnUse" color-interpolation-filters="sRGB">
      <feFlood flood-opacity="0" result="BackgroundImageFix"/>
      <feBlend mode="normal" in="SourceGraphic" in2="BackgroundImageFix" result="shape"/>
      <feColorMatrix in="SourceAlpha" type="matrix" values="0 0 0 0 0 0 0 0 0 0 0 0 0 0 0 0 0 0 127 0" result="hardAlpha"/>
      <feOffset dy="2"/>
      <feGaussianBlur stdDeviation="1"/>
      <feComposite in2="hardAlpha" operator="arithmetic" k2="-1" k3="1"/>
      <feColorMatrix type="matrix" values="0 0 0 0 0 0 0 0 0 0 0 0 0 0 0 0 0 0 0.4 0"/>
      <feBlend mode="normal" in2="shape" result="effect1_innerShadow_1439_2725"/>
    </filter>
  </defs>
</svg>