<svg width="96" height="96" viewBox="0 0 96 96" fill="none" xmlns="http://www.w3.org/2000/svg">
<rect width="96" height="96" rx="48" fill="#FCFC54"/>
<g clip-path="url(#clip0_1464_8779)">
<path d="M66.7188 51.4168C65.1663 44.0115 68.1561 31.8387 68.1561 25.7097C68.1561 12.7648 27.8102 12.7648 27.8102 25.7097C27.8102 31.8387 30.7999 44.0115 29.2475 51.4168C41.7366 47.3301 54.2277 47.3301 66.7168 51.4168H66.7188Z" fill="#23271A"/>
<path d="M47.9841 44.5455C52.8533 44.5455 56.8006 40.5991 56.8006 35.7309C56.8006 30.8628 52.8533 26.9164 47.9841 26.9164C43.1149 26.9164 39.1677 30.8628 39.1677 35.7309C39.1677 40.5991 43.1149 44.5455 47.9841 44.5455Z" fill="#1C2015"/>
<path d="M47.9841 43.95C52.8533 43.95 56.8006 40.0036 56.8006 35.1355C56.8006 30.2674 52.8533 26.321 47.9841 26.321C43.1149 26.321 39.1677 30.2674 39.1677 35.1355C39.1677 40.0036 43.1149 43.95 47.9841 43.95Z" fill="#FCFC54"/>
<path d="M52.304 32.4778H47.6943V34.3019H52.0003V36.7055H47.6943V40.9927H44.8554V30.0723H52.306V32.4759L52.304 32.4778Z" fill="#23271A"/>
<path d="M79.9821 55.055C80.141 53.223 79.2575 51.5578 77.1591 51.9627C57.0864 55.8211 37.651 55.843 18.8508 52.0282C16.7524 51.6034 15.8571 53.2845 16.0179 55.1205C17.1673 68.2638 78.8386 68.2202 79.9821 55.057V55.055Z" fill="#1A1A1A"/>
<path d="M30.5617 64.4769C30.5617 62.6866 31.2188 61.1483 32.5311 59.8622C33.8393 58.576 35.4096 57.9349 37.246 57.9349C39.0823 57.9349 40.6149 58.584 41.9113 59.88C43.2136 61.1761 43.8648 62.7342 43.8648 64.5523C43.8648 66.3704 43.2116 67.9344 41.9034 69.2086C40.5891 70.4888 39.0049 71.1279 37.1467 71.1279C35.503 71.1279 34.0279 70.5603 32.7216 69.423C31.2823 68.1646 30.5617 66.5172 30.5617 64.4788V64.4769Z" fill="#23271A"/>
<path d="M52.304 64.4769C52.304 62.6866 52.9611 61.1483 54.2734 59.8622C55.5816 58.576 57.152 57.9349 58.9883 57.9349C60.8246 57.9349 62.3572 58.584 63.6536 59.88C64.9559 61.1761 65.6071 62.7342 65.6071 64.5523C65.6071 66.3704 64.9539 67.9344 63.6457 69.2086C62.3314 70.4888 60.7472 71.1279 58.889 71.1279C57.2453 71.1279 55.7702 70.5603 54.464 69.423C53.0247 68.1646 52.304 66.5172 52.304 64.4788V64.4769Z" fill="#23271A"/>
<path d="M32.4993 64.5007C32.4993 65.9079 32.9718 67.063 33.9168 67.9701C34.8558 68.8772 35.9417 69.3297 37.1725 69.3297C38.5086 69.3297 39.6342 68.8692 40.5514 67.9463C41.4686 67.0134 41.9272 65.8761 41.9272 64.5344C41.9272 63.1927 41.4745 62.0395 40.5673 61.1225C39.666 60.1996 38.5503 59.7391 37.2202 59.7391C35.8901 59.7391 34.7783 60.1996 33.8651 61.1225C32.9519 62.0355 32.4973 63.1609 32.4973 64.5007H32.4993Z" fill="#FCFC54"/>
<path d="M54.2416 64.5007C54.2416 65.9079 54.714 67.063 55.659 67.9701C56.598 68.8772 57.6839 69.3297 58.9148 69.3297C60.2509 69.3297 61.3765 68.8692 62.2937 67.9463C63.2108 67.0134 63.6694 65.8761 63.6694 64.5344C63.6694 63.1927 63.2168 62.0395 62.3095 61.1225C61.4082 60.1996 60.2925 59.7391 58.9624 59.7391C57.6323 59.7391 56.5206 60.1996 55.6074 61.1225C54.6942 62.0355 54.2396 63.1609 54.2396 64.5007H54.2416Z" fill="#FCFC54"/>
<path d="M47.4144 74.4267C46.6719 74.8236 37.3552 79.7916 36.9681 80L36.1184 79.3609L19.6012 66.9321L38.1771 76.0026L36.0668 76.0344L44.2181 69.5599L47.4144 74.4287V74.4267Z" fill="#23271A"/>
<path d="M51.8196 69.5599L59.971 76.0344L57.8606 76.0026L76.4365 66.9301L59.9193 79.3589L59.0697 80L57.809 79.3272L48.6234 74.4267L51.8196 69.5599Z" fill="#23271A"/>
<path d="M79.9821 55.055C80.141 53.223 79.2575 51.5578 77.1591 51.9627C57.0864 55.8211 37.651 55.843 18.8508 52.0282C16.7524 51.6034 15.8571 53.2845 16.0179 55.1205C17.1673 68.2639 78.8386 68.2202 79.9821 55.057V55.055Z" fill="#23271A"/>
</g>
<defs>
<clipPath id="clip0_1464_8779">
<rect width="64" height="64" fill="white" transform="translate(16 16)"/>
</clipPath>
</defs>
</svg>
