<svg width="161" height="160" viewBox="0 0 161 160" fill="none" xmlns="http://www.w3.org/2000/svg">
<g filter="url(#filter0_dd_1439_2218)">
<rect x="47.3334" y="22" width="66" height="66" rx="33" fill="white"/>
<rect x="47.3334" y="22" width="66" height="66" rx="33" stroke="black" stroke-width="3.4375"/>
<path d="M93.0796 57.5737C92.0371 52.5792 94.0447 44.3693 94.0447 40.2355C94.0447 31.5048 66.9519 31.5048 66.9519 40.2355C66.9519 44.3693 68.9596 52.5792 67.9171 57.5737C76.3037 54.8174 84.6916 54.8174 93.0782 57.5737H93.0796Z" fill="#1A1A1A"/>
<path d="M93.0796 57.5737C92.0371 52.5792 94.0447 44.3693 94.0447 40.2355C94.0447 31.5048 66.9519 31.5048 66.9519 40.2355C66.9519 44.3693 68.9596 52.5792 67.9171 57.5737C76.3037 54.8174 84.6916 54.8174 93.0782 57.5737H93.0796Z" fill="url(#paint0_linear_1439_2218)"/>
<path d="M80.499 52.9393C83.7687 52.9393 86.4193 50.2776 86.4193 46.9943C86.4193 43.711 83.7687 41.0494 80.499 41.0494C77.2292 41.0494 74.5786 43.711 74.5786 46.9943C74.5786 50.2776 77.2292 52.9393 80.499 52.9393Z" fill="#CCCCCC"/>
<path d="M80.499 52.5377C83.7687 52.5377 86.4193 49.876 86.4193 46.5927C86.4193 43.3094 83.7687 40.6478 80.499 40.6478C77.2292 40.6478 74.5786 43.3094 74.5786 46.5927C74.5786 49.876 77.2292 52.5377 80.499 52.5377Z" fill="white"/>
<path d="M83.4011 44.8003H80.3056V46.0305H83.1972V47.6516H80.3056V50.5431H78.3993V43.1779H83.4025V44.799L83.4011 44.8003Z" fill="#1A1A1A"/>
<path d="M101.986 60.0274C102.093 58.7919 101.499 57.6687 100.09 57.9418C86.6112 60.5442 73.5601 60.5589 60.9355 57.986C59.5264 57.6995 58.9252 58.8334 59.0332 60.0716C59.805 68.9362 101.218 68.9067 101.986 60.0288V60.0274Z" fill="#1A1A1A"/>
<path d="M68.8009 66.382C68.8009 65.1745 69.2422 64.1371 70.1234 63.2696C71.0019 62.4022 72.0564 61.9698 73.2895 61.9698C74.5226 61.9698 75.5518 62.4076 76.4223 63.2817C77.2968 64.1558 77.7341 65.2067 77.7341 66.4329C77.7341 67.6591 77.2955 68.7139 76.417 69.5733C75.5345 70.4368 74.4706 70.8678 73.2228 70.8678C72.119 70.8678 71.1285 70.485 70.2513 69.7179C69.2848 68.8692 68.8009 67.7581 68.8009 66.3833V66.382Z" fill="#1A1A1A"/>
<path d="M83.4011 66.382C83.4011 65.1745 83.8424 64.1371 84.7236 63.2696C85.6021 62.4022 86.6566 61.9698 87.8897 61.9698C89.1228 61.9698 90.152 62.4076 91.0225 63.2817C91.897 64.1558 92.3343 65.2067 92.3343 66.4329C92.3343 67.6591 91.8957 68.7139 91.0172 69.5733C90.1347 70.4368 89.0708 70.8678 87.8231 70.8678C86.7192 70.8678 85.7287 70.485 84.8515 69.7179C83.885 68.8692 83.4011 67.7581 83.4011 66.3833V66.382Z" fill="#1A1A1A"/>
<path d="M70.1007 66.3981C70.1007 67.3472 70.418 68.1263 71.0525 68.738C71.6831 69.3498 72.4123 69.655 73.2388 69.655C74.136 69.655 74.8919 69.3444 75.5078 68.722C76.1237 68.0928 76.4316 67.3258 76.4316 66.4208C76.4316 65.5159 76.1277 64.7381 75.5185 64.1197C74.9132 63.4972 74.164 63.1866 73.2708 63.1866C72.3777 63.1866 71.6311 63.4972 71.0179 64.1197C70.4046 64.7355 70.0994 65.4945 70.0994 66.3981H70.1007Z" fill="white"/>
<path d="M84.7009 66.3981C84.7009 67.3472 85.0182 68.1263 85.6528 68.738C86.2833 69.3498 87.0125 69.655 87.8391 69.655C88.7362 69.655 89.4921 69.3444 90.108 68.722C90.7239 68.0928 91.0319 67.3258 91.0319 66.4208C91.0319 65.5159 90.7279 64.7381 90.1187 64.1197C89.5134 63.4972 88.7642 63.1866 87.8711 63.1866C86.9779 63.1866 86.2313 63.4972 85.6181 64.1197C85.0049 64.7355 84.6996 65.4945 84.6996 66.3981H84.7009Z" fill="white"/>
<path d="M80.1164 73.0928C79.6178 73.3605 73.3615 76.7111 73.1015 76.8517L72.5309 76.4207L61.4395 68.038L73.9134 74.1557L72.4963 74.1771L77.97 69.8104L80.1164 73.0941V73.0928Z" fill="#1A1A1A"/>
<path d="M83.0745 69.8103L88.5483 74.1769L87.1312 74.1555L99.6051 68.0366L88.5136 76.4192L87.9431 76.8516L87.0965 76.3978L80.9282 73.0926L83.0745 69.8103Z" fill="#1A1A1A"/>
<path d="M101.986 60.0274C102.093 58.7919 101.499 57.6687 100.09 57.9418C86.6112 60.5442 73.5601 60.5589 60.9355 57.986C59.5264 57.6995 58.9252 58.8334 59.0332 60.0716C59.805 68.9362 101.218 68.9067 101.986 60.0288V60.0274Z" fill="#1A1A1A"/>
<path d="M101.986 60.0274C102.093 58.7919 101.499 57.6687 100.09 57.9418C86.6112 60.5442 73.5601 60.5589 60.9355 57.986C59.5264 57.6995 58.9252 58.8334 59.0332 60.0716C59.805 68.9362 101.218 68.9067 101.986 60.0288V60.0274Z" fill="url(#paint1_linear_1439_2218)"/>
</g>
<defs>
<filter id="filter0_dd_1439_2218" x="0.614624" y="0.28125" width="159.438" height="159.438" filterUnits="userSpaceOnUse" color-interpolation-filters="sRGB">
<feFlood flood-opacity="0" result="BackgroundImageFix"/>
<feColorMatrix in="SourceAlpha" type="matrix" values="0 0 0 0 0 0 0 0 0 0 0 0 0 0 0 0 0 0 127 0" result="hardAlpha"/>
<feMorphology radius="15" operator="erode" in="SourceAlpha" result="effect1_dropShadow_1439_2218"/>
<feOffset dy="25"/>
<feGaussianBlur stdDeviation="30"/>
<feColorMatrix type="matrix" values="0 0 0 0 0.0625882 0 0 0 0 0.0926346 0 0 0 0 0.15702 0 0 0 0.2 0"/>
<feBlend mode="normal" in2="BackgroundImageFix" result="effect1_dropShadow_1439_2218"/>
<feColorMatrix in="SourceAlpha" type="matrix" values="0 0 0 0 0 0 0 0 0 0 0 0 0 0 0 0 0 0 127 0" result="hardAlpha"/>
<feMorphology radius="15" operator="erode" in="SourceAlpha" result="effect2_dropShadow_1439_2218"/>
<feOffset dy="25"/>
<feGaussianBlur stdDeviation="30"/>
<feColorMatrix type="matrix" values="0 0 0 0 0.0625882 0 0 0 0 0.0926346 0 0 0 0 0.15702 0 0 0 0.12 0"/>
<feBlend mode="normal" in2="effect1_dropShadow_1439_2218" result="effect2_dropShadow_1439_2218"/>
<feBlend mode="normal" in="SourceGraphic" in2="effect2_dropShadow_1439_2218" result="shape"/>
</filter>
<linearGradient id="paint0_linear_1439_2218" x1="101.305" y1="45.6303" x2="85.7941" y2="45.6303" gradientUnits="userSpaceOnUse">
<stop stop-color="white"/>
<stop offset="1"/>
</linearGradient>
<linearGradient id="paint1_linear_1439_2218" x1="111.195" y1="62.3018" x2="90.3546" y2="62.3018" gradientUnits="userSpaceOnUse">
<stop stop-color="white"/>
<stop offset="1"/>
</linearGradient>
</defs>
</svg>
