<svg width="64" height="64" viewBox="0 0 64 64" fill="none" xmlns="http://www.w3.org/2000/svg">
<g clip-path="url(#clip0_1706_23290)">
<path d="M50.7188 35.4169C49.1663 28.0115 52.1561 15.8387 52.1561 9.70967C52.1561 -3.23522 11.8102 -3.23522 11.8102 9.70967C11.8102 15.8387 14.7999 28.0115 13.2475 35.4169C25.7366 31.3301 38.2277 31.3301 50.7168 35.4169H50.7188Z" fill="#23271A"/>
<path d="M31.9842 28.5454C36.8533 28.5454 40.8006 24.599 40.8006 19.7309C40.8006 14.8628 36.8533 10.9164 31.9842 10.9164C27.115 10.9164 23.1677 14.8628 23.1677 19.7309C23.1677 24.599 27.115 28.5454 31.9842 28.5454Z" fill="#1C2015"/>
<path d="M31.9842 27.95C36.8533 27.95 40.8006 24.0036 40.8006 19.1355C40.8006 14.2674 36.8533 10.321 31.9842 10.321C27.115 10.321 23.1677 14.2674 23.1677 19.1355C23.1677 24.0036 27.115 27.95 31.9842 27.95Z" fill="#FCFC54"/>
<path d="M36.304 16.4778H31.6943V18.3019H36.0003V20.7055H31.6943V24.9927H28.8554V14.0723H36.306V16.4759L36.304 16.4778Z" fill="#23271A"/>
<path d="M63.9821 39.055C64.141 37.223 63.2575 35.5578 61.1591 35.9627C41.0864 39.8211 21.651 39.843 2.8508 36.0282C0.752408 35.6034 -0.142933 37.2846 0.0178709 39.1205C1.16732 52.2639 62.8386 52.2202 63.9821 39.057V39.055Z" fill="#1A1A1A"/>
<path d="M14.5617 48.4769C14.5617 46.6866 15.2188 45.1483 16.5311 43.8622C17.8393 42.576 19.4096 41.9349 21.246 41.9349C23.0823 41.9349 24.6149 42.584 25.9113 43.88C27.2136 45.1761 27.8648 46.7342 27.8648 48.5523C27.8648 50.3704 27.2116 51.9344 25.9034 53.2086C24.5891 54.4888 23.0049 55.1279 21.1467 55.1279C19.503 55.1279 18.0279 54.5603 16.7216 53.423C15.2823 52.1646 14.5617 50.5172 14.5617 48.4788V48.4769Z" fill="#23271A"/>
<path d="M36.304 48.4769C36.304 46.6866 36.9611 45.1483 38.2734 43.8622C39.5816 42.576 41.152 41.9349 42.9883 41.9349C44.8246 41.9349 46.3572 42.584 47.6536 43.88C48.9559 45.1761 49.6071 46.7342 49.6071 48.5523C49.6071 50.3704 48.9539 51.9344 47.6457 53.2086C46.3314 54.4888 44.7472 55.1279 42.889 55.1279C41.2453 55.1279 39.7702 54.5603 38.464 53.423C37.0247 52.1646 36.304 50.5172 36.304 48.4788V48.4769Z" fill="#23271A"/>
<path d="M16.4993 48.5007C16.4993 49.9079 16.9718 51.0631 17.9168 51.9701C18.8558 52.8772 19.9417 53.3297 21.1725 53.3297C22.5086 53.3297 23.6342 52.8692 24.5514 51.9463C25.4686 51.0134 25.9272 49.8761 25.9272 48.5344C25.9272 47.1927 25.4745 46.0395 24.5673 45.1225C23.666 44.1996 22.5503 43.7391 21.2202 43.7391C19.8901 43.7391 18.7783 44.1996 17.8651 45.1225C16.9519 46.0356 16.4973 47.1609 16.4973 48.5007H16.4993Z" fill="#FCFC54"/>
<path d="M38.2416 48.5007C38.2416 49.9079 38.714 51.0631 39.659 51.9701C40.598 52.8772 41.6839 53.3297 42.9148 53.3297C44.2509 53.3297 45.3765 52.8692 46.2937 51.9463C47.2108 51.0134 47.6694 49.8761 47.6694 48.5344C47.6694 47.1927 47.2168 46.0395 46.3095 45.1225C45.4082 44.1996 44.2925 43.7391 42.9624 43.7391C41.6323 43.7391 40.5206 44.1996 39.6074 45.1225C38.6942 46.0356 38.2396 47.1609 38.2396 48.5007H38.2416Z" fill="#FCFC54"/>
<path d="M31.4143 58.4267C30.6719 58.8236 21.3552 63.7916 20.968 64L20.1183 63.3609L3.6012 50.932L22.177 60.0026L20.0667 60.0344L28.2181 53.5599L31.4143 58.4286V58.4267Z" fill="#23271A"/>
<path d="M35.8196 53.5599L43.971 60.0343L41.8606 60.0026L60.4365 50.9301L43.9193 63.3589L43.0697 64L41.809 63.3271L32.6234 58.4267L35.8196 53.5599Z" fill="#23271A"/>
<path d="M63.9821 39.055C64.141 37.223 63.2575 35.5578 61.1591 35.9627C41.0864 39.8211 21.651 39.843 2.8508 36.0282C0.752408 35.6034 -0.142933 37.2846 0.0178709 39.1205C1.16732 52.2639 62.8386 52.2202 63.9821 39.057V39.055Z" fill="#23271A"/>
</g>
<defs>
<clipPath id="clip0_1706_23290">
<rect width="64" height="64" fill="white"/>
</clipPath>
</defs>
</svg>
