<svg width="32" height="32" viewBox="0 0 32 32" fill="none" xmlns="http://www.w3.org/2000/svg">
<path d="M17.6127 9.50155C15.1062 9.50155 12.6597 10.468 10.8307 12.1825C8.82468 14.0634 7.55515 16.8412 6.82744 19.4543C6.35081 21.1643 6.11206 22.9378 6.11206 24.7121C6.11206 25.2487 6.13409 25.7808 6.17637 26.3067C6.22835 26.9464 6.85122 27.3895 7.47145 27.2221C8.01239 27.0767 8.58152 26.9983 9.16827 26.9983C10.3735 26.9983 11.5029 27.3261 12.4712 27.8987C12.4949 27.9128 12.5179 27.9269 12.5416 27.9401C14.1151 28.8784 15.9714 29.3938 17.951 29.3277C23.1146 29.1568 27.3329 24.9553 27.5231 19.7926C27.7311 14.1445 23.215 9.50067 17.6136 9.50067L17.6127 9.50155ZM17.6127 23.9492C15.1098 23.9492 13.0808 21.9202 13.0808 19.4182C13.0808 16.9161 15.1098 14.8863 17.6127 14.8863C20.1157 14.8863 22.1446 16.9152 22.1446 19.4182C22.1446 21.9211 20.1157 23.9492 17.6127 23.9492Z" fill="#14AAFF"/>
<path d="M13.5354 6.37925C13.5354 7.68578 12.8508 8.89804 11.7267 9.56408C11.021 9.98256 10.3594 10.4768 9.76027 11.0398C8.43083 12.2855 7.43882 13.8141 6.70406 15.3294C6.55958 15.628 6.11115 15.5223 6.11115 15.1902V6.37925C6.11115 4.32915 7.7736 2.66669 9.82371 2.66669C11.8738 2.66669 13.5363 4.32915 13.5363 6.37925H13.5354Z" fill="#0075FF"/>
</svg>
