<svg width="60" height="60" viewBox="0 0 60 60" fill="none" xmlns="http://www.w3.org/2000/svg">
<g clip-path="url(#clip0_1439_2226)">
<path fill-rule="evenodd" clip-rule="evenodd" d="M17.7507 13.0648V14.6433C15.8451 14.9159 13.9594 15.2503 12.0956 15.6444C11.3709 15.7976 10.8962 16.4951 11.0195 17.2254C11.9594 22.7932 16.598 27.1026 22.3229 27.5364C23.7696 28.7178 25.4889 29.5807 27.3727 30.0158C27.1907 32.1669 26.4611 34.1601 25.3237 35.8585H23.9649C22.0581 35.8585 20.5123 37.4043 20.5123 39.3111V44.1447H19.1311C16.8429 44.1447 14.988 45.9997 14.988 48.2878C14.988 49.0505 15.6063 49.6688 16.369 49.6688H43.9896C44.7524 49.6688 45.3707 49.0505 45.3707 48.2878C45.3707 45.9997 43.5157 44.1447 41.2276 44.1447H39.8467V39.3111C39.8467 37.4043 38.301 35.8585 36.3942 35.8585H35.0344C33.8974 34.1603 33.1682 32.1671 32.9863 30.016C34.8705 29.581 36.5902 28.718 38.0371 27.5364C43.762 27.1026 48.4006 22.7932 49.3405 17.2254C49.4638 16.4951 48.9891 15.7976 48.2644 15.6444C46.4006 15.2503 44.5149 14.9159 42.6093 14.6433V13.0648C42.6093 12.3682 42.0904 11.7806 41.3991 11.6944C37.7232 11.2361 33.9789 11 30.18 11C26.3811 11 22.6368 11.2361 18.9609 11.6944C18.2696 11.7806 17.7507 12.3682 17.7507 13.0648ZM17.7507 17.9052C17.7507 20.1078 18.3243 22.177 19.3292 23.9711C16.8303 22.8524 14.8922 20.7036 14.0567 18.0651C15.2788 17.8283 16.5103 17.6179 17.7507 17.4345V17.9052ZM42.6093 17.9052V17.4345C43.8497 17.6179 45.0812 17.8283 46.3033 18.0651C45.4678 20.7036 43.5297 22.8524 41.0308 23.9711C42.0357 22.177 42.6093 20.1078 42.6093 17.9052Z" fill="url(#paint0_linear_1439_2226)"/>
</g>
<defs>
<linearGradient id="paint0_linear_1439_2226" x1="59.6394" y1="30.3339" x2="37.6782" y2="30.3339" gradientUnits="userSpaceOnUse">
<stop stop-color="white"/>
<stop offset="1"/>
</linearGradient>
<clipPath id="clip0_1439_2226">
<rect width="60" height="60" fill="white"/>
</clipPath>
</defs>
</svg>
