<svg width="158" height="150" viewBox="0 0 158 150" fill="none" xmlns="http://www.w3.org/2000/svg">
<path d="M78.4922 7L19 40.8965V108.689L78.4922 142.586L138 108.689V40.8965L78.4922 7Z" fill="#FCFC54" stroke="black" stroke-width="1.76822" stroke-miterlimit="10"/>
<path d="M19.0001 40.8964L78.4923 74.7929L138 40.8964" stroke="black" stroke-width="2" stroke-miterlimit="10"/>
<path d="M78.4923 74.7928V142.586" stroke="black" stroke-width="2" stroke-miterlimit="10"/>
<path d="M37.8501 71.8634C39.7476 70.7824 39.7464 67.2751 37.8476 64.0297C35.9487 60.7843 32.8711 59.0296 30.9736 60.1107C29.0762 61.1917 29.0773 64.6989 30.9762 67.9444C32.8751 71.1898 35.9526 72.9444 37.8501 71.8634Z" fill="black"/>
<path d="M66.5034 88.1759C68.4009 87.0949 68.3998 83.5876 66.5009 80.3422C64.602 77.0968 61.5244 75.3421 59.627 76.4232C57.7295 77.5042 57.7306 81.0114 59.6295 84.2569C61.5284 87.5023 64.6059 89.2569 66.5034 88.1759Z" fill="black"/>
<path d="M52.1881 97.6186C54.0856 96.5376 54.0844 93.0304 52.1856 89.7849C50.2867 86.5395 47.2091 84.7849 45.3117 85.8659C43.4142 86.9469 43.4153 90.4542 45.3142 93.6996C47.2131 96.945 50.2906 98.6996 52.1881 97.6186Z" fill="black"/>
<path d="M37.858 107.062C39.7555 105.981 39.7544 102.474 37.8555 99.2282C35.9566 95.9827 32.8791 94.2281 30.9816 95.3091C29.0841 96.3901 29.0852 99.8974 30.9841 103.143C32.883 106.388 35.9606 108.143 37.858 107.062Z" fill="black"/>
<path d="M66.5109 123.374C68.4083 122.293 68.4072 118.786 66.5083 115.54C64.6094 112.295 61.5319 110.54 59.6344 111.621C57.7369 112.702 57.7381 116.21 59.637 119.455C61.5358 122.7 64.6134 124.455 66.5109 123.374Z" fill="black"/>
<path d="M111.683 93.7019C113.582 90.4565 113.583 86.9492 111.686 85.8682C109.788 84.7872 106.711 86.5418 104.812 89.7872C102.913 93.0326 102.912 96.5399 104.809 97.6209C106.707 98.7019 109.784 96.9473 111.683 93.7019Z" fill="black"/>
<path d="M48.7302 44.1664C52.528 44.1664 55.6067 42.4137 55.6067 40.2517C55.6067 38.0897 52.528 36.337 48.7302 36.337C44.9325 36.337 41.8538 38.0897 41.8538 40.2517C41.8538 42.4137 44.9325 44.1664 48.7302 44.1664Z" fill="black"/>
<path d="M108.269 45.4406C112.067 45.4406 115.145 43.6879 115.145 41.5259C115.145 39.3639 112.067 37.6112 108.269 37.6112C104.471 37.6112 101.393 39.3639 101.393 41.5259C101.393 43.6879 104.471 45.4406 108.269 45.4406Z" fill="black"/>
</svg>
