<svg width="63" height="73" viewBox="0 0 63 73" fill="none" xmlns="http://www.w3.org/2000/svg">
<path d="M31.4878 1.47443L1.38525 18.8558V53.6186L31.4878 71L61.5982 53.6186V18.8558L31.4878 1.47443Z" fill="#FCFC54" stroke="black" stroke-width="1.76822" stroke-miterlimit="10"/>
<path d="M1.38525 18.8558L31.4878 36.2372L61.5982 18.8558" stroke="black" stroke-width="1.76822" stroke-miterlimit="10"/>
<path d="M31.4878 36.2371V70.9999" stroke="black" stroke-width="1.76822" stroke-miterlimit="10"/>
<path d="M10.9232 34.735C11.8833 34.1806 11.8827 32.3822 10.9219 30.718C9.96107 29.0538 8.40386 28.1541 7.44375 28.7084C6.48364 29.2627 6.48422 31.0612 7.44504 32.7254C8.40585 34.3896 9.96307 35.2893 10.9232 34.735Z" fill="black"/>
<path d="M25.4215 43.0996C26.3816 42.5453 26.381 40.7469 25.4202 39.0827C24.4594 37.4185 22.9021 36.5188 21.942 37.0731C20.9819 37.6274 20.9825 39.4259 21.9433 41.0901C22.9041 42.7542 24.4614 43.654 25.4215 43.0996Z" fill="black"/>
<path d="M18.1781 47.9417C19.1382 47.3874 19.1376 45.5889 18.1768 43.9247C17.216 42.2605 15.6587 41.3608 14.6986 41.9151C13.7385 42.4695 13.7391 44.2679 14.6999 45.9321C15.6607 47.5963 17.218 48.496 18.1781 47.9417Z" fill="black"/>
<path d="M10.9271 52.784C11.8872 52.2297 11.8866 50.4312 10.9258 48.767C9.96498 47.1028 8.40776 46.2031 7.44766 46.7574C6.48755 47.3117 6.48813 49.1102 7.44894 50.7744C8.40976 52.4386 9.96698 53.3383 10.9271 52.784Z" fill="black"/>
<path d="M25.4253 61.1485C26.3854 60.5942 26.3848 58.7958 25.424 57.1316C24.4631 55.4674 22.9059 54.5677 21.9458 55.122C20.9857 55.6763 20.9863 57.4748 21.9471 59.1389C22.9079 60.8031 24.4651 61.7029 25.4253 61.1485Z" fill="black"/>
<path d="M48.2821 45.9334C49.2429 44.2692 49.2435 42.4707 48.2834 41.9164C47.3233 41.3621 45.7661 42.2618 44.8053 43.926C43.8444 45.5902 43.8439 47.3886 44.804 47.943C45.7641 48.4973 47.3213 47.5975 48.2821 45.9334Z" fill="black"/>
<path d="M16.4285 20.5326C18.3502 20.5326 19.908 19.6338 19.908 18.5252C19.908 17.4166 18.3502 16.5179 16.4285 16.5179C14.5069 16.5179 12.9491 17.4166 12.9491 18.5252C12.9491 19.6338 14.5069 20.5326 16.4285 20.5326Z" fill="black"/>
<path d="M46.5545 21.186C48.4761 21.186 50.0339 20.2872 50.0339 19.1786C50.0339 18.07 48.4761 17.1712 46.5545 17.1712C44.6329 17.1712 43.0751 18.07 43.0751 19.1786C43.0751 20.2872 44.6329 21.186 46.5545 21.186Z" fill="black"/>
</svg>
