<svg width="52" height="52" viewBox="0 0 52 52" fill="none" xmlns="http://www.w3.org/2000/svg">
<path d="M25.9978 1.88867L8.92908 11.7443V31.4555L25.9978 41.3111L43.0711 31.4555V11.7443L25.9978 1.88867Z" fill="white" stroke="black" stroke-width="1.53246" stroke-miterlimit="10"/>
<path d="M8.92914 11.7441L25.9979 21.5997L43.0711 11.7441" stroke="black" stroke-width="1.53246" stroke-miterlimit="10"/>
<path d="M25.9979 21.5999V41.3111" stroke="black" stroke-width="1.53246" stroke-miterlimit="10"/>
<path d="M14.3373 20.748C14.8817 20.4337 14.8814 19.4139 14.3366 18.4703C13.7918 17.5266 12.9088 17.0165 12.3644 17.3308C11.82 17.6451 11.8203 18.6649 12.3651 19.6085C12.9099 20.5521 13.7929 21.0623 14.3373 20.748Z" fill="black"/>
<path d="M22.5581 25.4909C23.1025 25.1766 23.1022 24.1568 22.5574 23.2132C22.0126 22.2696 21.1296 21.7594 20.5852 22.0737C20.0408 22.388 20.0411 23.4078 20.5859 24.3514C21.1307 25.295 22.0137 25.8052 22.5581 25.4909Z" fill="black"/>
<path d="M18.451 28.2365C18.9954 27.9222 18.9951 26.9024 18.4503 25.9588C17.9055 25.0152 17.0225 24.505 16.4781 24.8193C15.9337 25.1336 15.934 26.1534 16.4788 27.097C17.0236 28.0406 17.9066 28.5508 18.451 28.2365Z" fill="black"/>
<path d="M14.3396 30.9821C14.884 30.6678 14.8836 29.648 14.3388 28.7044C13.794 27.7608 12.911 27.2506 12.3666 27.5649C11.8222 27.8792 11.8226 28.899 12.3674 29.8426C12.9122 30.7862 13.7952 31.2964 14.3396 30.9821Z" fill="black"/>
<path d="M22.5603 35.725C23.1047 35.4107 23.1044 34.391 22.5596 33.4473C22.0148 32.5037 21.1318 31.9935 20.5874 32.3078C20.043 32.6222 20.0433 33.6419 20.5881 34.5855C21.1329 35.5292 22.0159 36.0393 22.5603 35.725Z" fill="black"/>
<path d="M35.5206 27.0978C36.0654 26.1542 36.0657 25.1345 35.5213 24.8201C34.9769 24.5058 34.0939 25.016 33.5491 25.9596C33.0043 26.9033 33.004 27.923 33.5484 28.2373C34.0928 28.5516 34.9758 28.0415 35.5206 27.0978Z" fill="black"/>
<path d="M17.4589 12.6951C18.5485 12.6951 19.4318 12.1855 19.4318 11.5569C19.4318 10.9283 18.5485 10.4187 17.4589 10.4187C16.3693 10.4187 15.486 10.9283 15.486 11.5569C15.486 12.1855 16.3693 12.6951 17.4589 12.6951Z" fill="black"/>
<path d="M34.541 13.0655C35.6306 13.0655 36.5139 12.5559 36.5139 11.9273C36.5139 11.2987 35.6306 10.7891 34.541 10.7891C33.4514 10.7891 32.5681 11.2987 32.5681 11.9273C32.5681 12.5559 33.4514 13.0655 34.541 13.0655Z" fill="black"/>
<rect width="37.2667" height="14" transform="translate(7.3667 36.1113)" fill="white"/>
<rect width="37.2667" height="14" transform="translate(7.3667 36.1113)" fill="url(#paint0_linear_1507_1852)"/>
<path d="M16.122 46.1113V39.8059H20.223V40.7634H17.2642V42.4752H20.0106V43.4327H17.2642V45.1538H20.2476V46.1113H16.122ZM25.5632 41.3822L23.8791 46.1113H22.6476L20.9635 41.3822H22.1519L23.2387 44.8952H23.288L24.3779 41.3822H25.5632ZM28.2672 46.2037C27.7931 46.2037 27.3836 46.1052 27.0388 45.9081C26.696 45.709 26.4322 45.4278 26.2475 45.0645C26.0628 44.6992 25.9704 44.2692 25.9704 43.7745C25.9704 43.288 26.0628 42.8611 26.2475 42.4937C26.4343 42.1242 26.695 41.8369 27.0295 41.6316C27.3641 41.4243 27.7572 41.3207 28.2087 41.3207C28.5002 41.3207 28.7752 41.3679 29.0339 41.4623C29.2945 41.5547 29.5244 41.6983 29.7235 41.8933C29.9247 42.0883 30.0827 42.3367 30.1977 42.6384C30.3126 42.9381 30.3701 43.2952 30.3701 43.7098V44.0516H26.4938V43.3004H29.3017C29.2997 43.0869 29.2535 42.897 29.1632 42.7308C29.0729 42.5625 28.9466 42.4301 28.7845 42.3336C28.6244 42.2371 28.4376 42.1889 28.2241 42.1889C27.9963 42.1889 27.7962 42.2443 27.6237 42.3551C27.4513 42.4639 27.3169 42.6076 27.2204 42.7862C27.126 42.9627 27.0778 43.1567 27.0757 43.3681V44.0239C27.0757 44.2989 27.126 44.535 27.2266 44.732C27.3272 44.927 27.4678 45.0768 27.6484 45.1815C27.829 45.2841 28.0404 45.3355 28.2826 45.3355C28.4448 45.3355 28.5915 45.3129 28.7229 45.2677C28.8543 45.2205 28.9682 45.1518 29.0646 45.0614C29.1611 44.9711 29.234 44.8593 29.2832 44.7259L30.3239 44.8428C30.2582 45.1179 30.133 45.358 29.9483 45.5633C29.7656 45.7665 29.5316 45.9245 29.2463 46.0374C28.961 46.1483 28.6346 46.2037 28.2672 46.2037ZM32.4275 43.3404V46.1113H31.313V41.3822H32.3782V42.1858H32.4337C32.5424 41.921 32.7159 41.7106 32.954 41.5547C33.1941 41.3987 33.4907 41.3207 33.8438 41.3207C34.1701 41.3207 34.4544 41.3904 34.6966 41.53C34.9409 41.6696 35.1297 41.8718 35.2631 42.1366C35.3986 42.4013 35.4653 42.7226 35.4632 43.1002V46.1113H34.3487V43.2726C34.3487 42.9565 34.2666 42.7092 34.1024 42.5306C33.9402 42.3521 33.7155 42.2628 33.4281 42.2628C33.2331 42.2628 33.0597 42.3059 32.9078 42.3921C32.758 42.4762 32.6399 42.5984 32.5537 42.7585C32.4696 42.9186 32.4275 43.1125 32.4275 43.3404Z" fill="white"/>
<defs>
<linearGradient id="paint0_linear_1507_1852" x1="47.2531" y1="6.9998" x2="25.9178" y2="6.9998" gradientUnits="userSpaceOnUse">
<stop stop-color="white"/>
<stop offset="1"/>
</linearGradient>
</defs>
</svg>
