<svg width="681" height="154" viewBox="0 0 681 154" fill="none" xmlns="http://www.w3.org/2000/svg">
<path d="M680.51 0.570007H0.450012V153.36H680.51V0.570007Z" fill="#1A1A1A"/>
<path d="M680.51 0.570007H0.450012V153.36H680.51V0.570007Z" fill="#23271A"/>
<path d="M86.87 50.54H48.84V69.86H85.88V81.27H48.84V119.55H36.7V39.13H86.86V50.54H86.87Z" fill="#FCFC54"/>
<path d="M97.8 78.98C97.8 67.66 101.95 57.94 110.25 49.81C118.51 41.69 128.44 37.62 140.04 37.62C151.64 37.62 161.32 41.72 169.52 49.91C177.75 58.1 181.86 67.95 181.86 79.44C181.86 90.93 177.73 100.81 169.46 108.87C161.16 116.96 151.14 121 139.41 121C129.03 121 119.7 117.41 111.44 110.22C102.34 102.27 97.79 91.85 97.79 78.97L97.8 78.98ZM110.04 79.14C110.04 88.03 113.03 95.34 119 101.07C124.94 106.8 131.79 109.66 139.57 109.66C148.01 109.66 155.12 106.74 160.92 100.91C166.72 95.01 169.62 87.82 169.62 79.35C169.62 70.88 166.76 63.59 161.03 57.79C155.34 51.96 148.29 49.04 139.88 49.04C131.47 49.04 124.45 51.96 118.68 57.79C112.92 63.55 110.03 70.67 110.03 79.14H110.04Z" fill="#FCFC54"/>
<path d="M194.31 119.55L211.24 33.09L238.84 95.59L267.43 33.09L282.64 119.55H270.19L262.43 71.01L238.63 123.25L215.51 70.96L206.87 119.55H194.32H194.31Z" fill="#FCFC54"/>
<path d="M295.66 78.98C295.66 67.66 299.81 57.94 308.11 49.81C316.37 41.69 326.3 37.62 337.9 37.62C349.5 37.62 359.18 41.72 367.38 49.91C375.61 58.1 379.72 67.95 379.72 79.44C379.72 90.93 375.59 100.81 367.32 108.87C359.02 116.96 349 121 337.27 121C326.89 121 317.56 117.41 309.3 110.22C300.2 102.27 295.65 91.85 295.65 78.97L295.66 78.98ZM307.9 79.14C307.9 88.03 310.89 95.34 316.86 101.07C322.8 106.8 329.65 109.66 337.43 109.66C345.87 109.66 352.98 106.74 358.78 100.91C364.58 95.01 367.48 87.82 367.48 79.35C367.48 70.88 364.62 63.59 358.89 57.79C353.19 51.96 346.15 49.04 337.74 49.04C329.33 49.04 322.31 51.96 316.54 57.79C310.78 63.55 307.89 70.67 307.89 79.14H307.9Z" fill="#FCFC54"/>
<path d="M407.12 86.89V119.55H394.99V39.13H408.74C415.48 39.13 420.56 39.6 424 40.54C427.47 41.48 430.53 43.25 433.17 45.85C437.79 50.36 440.1 56.06 440.1 62.93C440.1 70.29 437.63 76.13 432.7 80.43C427.77 84.74 421.12 86.89 412.75 86.89H407.13H407.12ZM407.12 75.64H411.65C422.8 75.64 428.37 71.35 428.37 62.78C428.37 54.21 422.62 50.33 411.13 50.33H407.12V75.64Z" fill="#FCFC54"/>
<path d="M448.58 78.98C448.58 67.66 452.73 57.94 461.03 49.81C469.29 41.69 479.22 37.62 490.82 37.62C502.42 37.62 512.1 41.72 520.3 49.91C528.53 58.1 532.64 67.95 532.64 79.44C532.64 90.93 528.51 100.81 520.24 108.87C511.94 116.96 501.92 121 490.19 121C479.81 121 470.48 117.41 462.22 110.22C453.12 102.27 448.57 91.85 448.57 78.97L448.58 78.98ZM460.82 79.14C460.82 88.03 463.81 95.34 469.78 101.07C475.72 106.8 482.57 109.66 490.35 109.66C498.79 109.66 505.9 106.74 511.7 100.91C517.5 95.01 520.4 87.82 520.4 79.35C520.4 70.88 517.54 63.59 511.81 57.79C506.11 51.96 499.07 49.04 490.66 49.04C482.25 49.04 475.23 51.96 469.46 57.79C463.7 63.55 460.81 70.67 460.81 79.14H460.82Z" fill="#FCFC54"/>
<path d="M560.04 39.14V108.15H583.69V119.56H547.91V39.14H560.04Z" fill="#FCFC54"/>
<path d="M604.62 84.81L578.37 39.13H592.33L610.71 71.26L629.15 39.13H643.11L616.76 84.81V119.55H604.62V84.81Z" fill="#FCFC54"/>
</svg>
