<svg width="52" height="52" viewBox="0 0 52 52" fill="none" xmlns="http://www.w3.org/2000/svg">
<path d="M25.9978 1.88867L8.92908 11.7443V31.4555L25.9978 41.3111L43.0711 31.4555V11.7443L25.9978 1.88867Z" fill="white" stroke="black" stroke-width="1.53246" stroke-miterlimit="10"/>
<path d="M8.92914 11.7441L25.9979 21.5997L43.0711 11.7441" stroke="black" stroke-width="1.53246" stroke-miterlimit="10"/>
<path d="M25.9979 21.5999V41.3111" stroke="black" stroke-width="1.53246" stroke-miterlimit="10"/>
<path d="M14.3373 20.748C14.8817 20.4337 14.8814 19.4139 14.3366 18.4703C13.7918 17.5266 12.9088 17.0165 12.3644 17.3308C11.82 17.6451 11.8203 18.6649 12.3651 19.6085C12.9099 20.5521 13.7929 21.0623 14.3373 20.748Z" fill="black"/>
<path d="M22.5581 25.4909C23.1025 25.1766 23.1022 24.1568 22.5574 23.2132C22.0126 22.2696 21.1296 21.7594 20.5852 22.0737C20.0408 22.388 20.0411 23.4078 20.5859 24.3514C21.1307 25.295 22.0137 25.8052 22.5581 25.4909Z" fill="black"/>
<path d="M18.451 28.2365C18.9954 27.9222 18.9951 26.9024 18.4503 25.9588C17.9055 25.0152 17.0225 24.505 16.4781 24.8193C15.9337 25.1336 15.934 26.1534 16.4788 27.097C17.0236 28.0406 17.9066 28.5508 18.451 28.2365Z" fill="black"/>
<path d="M14.3396 30.9821C14.884 30.6678 14.8836 29.648 14.3388 28.7044C13.794 27.7608 12.911 27.2506 12.3666 27.5649C11.8222 27.8792 11.8226 28.899 12.3674 29.8426C12.9122 30.7862 13.7952 31.2964 14.3396 30.9821Z" fill="black"/>
<path d="M22.5603 35.725C23.1047 35.4107 23.1044 34.391 22.5596 33.4473C22.0148 32.5037 21.1318 31.9935 20.5874 32.3078C20.043 32.6222 20.0433 33.6419 20.5881 34.5855C21.1329 35.5292 22.0159 36.0393 22.5603 35.725Z" fill="black"/>
<path d="M35.5206 27.0978C36.0654 26.1542 36.0657 25.1345 35.5213 24.8201C34.9769 24.5058 34.0939 25.016 33.5491 25.9596C33.0043 26.9033 33.004 27.923 33.5484 28.2373C34.0928 28.5516 34.9758 28.0415 35.5206 27.0978Z" fill="black"/>
<path d="M17.4589 12.6951C18.5485 12.6951 19.4318 12.1855 19.4318 11.5569C19.4318 10.9283 18.5485 10.4187 17.4589 10.4187C16.3693 10.4187 15.486 10.9283 15.486 11.5569C15.486 12.1855 16.3693 12.6951 17.4589 12.6951Z" fill="black"/>
<path d="M34.541 13.0655C35.6306 13.0655 36.5139 12.5559 36.5139 11.9273C36.5139 11.2987 35.6306 10.7891 34.541 10.7891C33.4514 10.7891 32.5681 11.2987 32.5681 11.9273C32.5681 12.5559 33.4514 13.0655 34.541 13.0655Z" fill="black"/>
<rect width="37.2667" height="14" transform="translate(7.3667 36.1113)" fill="white"/>
<rect width="37.2667" height="14" transform="translate(7.3667 36.1113)" fill="url(#paint0_linear_1507_1789)"/>
<path d="M16.622 46.1113V39.8059H17.7642V42.4752H20.686V39.8059H21.8314V46.1113H20.686V43.4327H17.7642V46.1113H16.622ZM23.0244 46.1113V41.3822H24.139V46.1113H23.0244ZM23.5848 40.7111C23.4083 40.7111 23.2564 40.6526 23.1291 40.5356C23.0018 40.4165 22.9382 40.2739 22.9382 40.1076C22.9382 39.9393 23.0018 39.7966 23.1291 39.6796C23.2564 39.5606 23.4083 39.5011 23.5848 39.5011C23.7633 39.5011 23.9152 39.5606 24.0404 39.6796C24.1677 39.7966 24.2313 39.9393 24.2313 40.1076C24.2313 40.2739 24.1677 40.4165 24.0404 40.5356C23.9152 40.6526 23.7633 40.7111 23.5848 40.7111ZM27.3417 47.9833C26.9415 47.9833 26.5977 47.9289 26.3103 47.8201C26.023 47.7133 25.792 47.5697 25.6176 47.389C25.4431 47.2084 25.322 47.0083 25.2543 46.7887L26.258 46.5454C26.3031 46.6378 26.3688 46.7291 26.455 46.8195C26.5412 46.9118 26.6572 46.9878 26.8029 47.0473C26.9507 47.1089 27.1365 47.1397 27.3602 47.1397C27.6763 47.1397 27.938 47.0627 28.1453 46.9087C28.3526 46.7569 28.4563 46.5064 28.4563 46.1575V45.2616H28.4008C28.3434 45.3765 28.2592 45.4945 28.1484 45.6156C28.0396 45.7367 27.8949 45.8383 27.7143 45.9204C27.5357 46.0025 27.3109 46.0436 27.04 46.0436C26.6767 46.0436 26.3473 45.9584 26.0517 45.7881C25.7582 45.6156 25.5242 45.3591 25.3497 45.0183C25.1773 44.6756 25.0911 44.2466 25.0911 43.7314C25.0911 43.2121 25.1773 42.7739 25.3497 42.4167C25.5242 42.0575 25.7592 41.7856 26.0548 41.6008C26.3503 41.4141 26.6798 41.3207 27.0431 41.3207C27.3202 41.3207 27.548 41.3679 27.7266 41.4623C27.9072 41.5547 28.0509 41.6665 28.1576 41.7979C28.2643 41.9272 28.3454 42.0493 28.4008 42.1643H28.4624V41.3822H29.5616V46.1883C29.5616 46.5927 29.4651 46.9272 29.2721 47.192C29.0792 47.4568 28.8155 47.6549 28.4809 47.7862C28.1463 47.9176 27.7666 47.9833 27.3417 47.9833ZM27.351 45.1692C27.587 45.1692 27.7882 45.1117 27.9544 44.9968C28.1207 44.8818 28.2469 44.7166 28.3331 44.5011C28.4193 44.2856 28.4624 44.027 28.4624 43.7252C28.4624 43.4276 28.4193 43.1669 28.3331 42.9432C28.249 42.7195 28.1237 42.546 27.9575 42.4229C27.7933 42.2977 27.5911 42.2351 27.351 42.2351C27.1026 42.2351 26.8953 42.2997 26.729 42.429C26.5628 42.5584 26.4376 42.7359 26.3534 42.9617C26.2693 43.1854 26.2272 43.4399 26.2272 43.7252C26.2272 44.0146 26.2693 44.2681 26.3534 44.4857C26.4396 44.7012 26.5659 44.8695 26.7321 44.9906C26.9004 45.1097 27.1067 45.1692 27.351 45.1692ZM31.8183 43.3404V46.1113H30.7038V39.8059H31.7937V42.1858H31.8491C31.96 41.919 32.1314 41.7086 32.3633 41.5547C32.5973 41.3987 32.8949 41.3207 33.2562 41.3207C33.5846 41.3207 33.8709 41.3894 34.1152 41.5269C34.3594 41.6645 34.5482 41.8656 34.6817 42.1304C34.8171 42.3952 34.8849 42.7185 34.8849 43.1002V46.1113H33.7703V43.2726C33.7703 42.9545 33.6882 42.7072 33.524 42.5306C33.3619 42.3521 33.134 42.2628 32.8405 42.2628C32.6435 42.2628 32.467 42.3059 32.311 42.3921C32.157 42.4762 32.0359 42.5984 31.9477 42.7585C31.8615 42.9186 31.8183 43.1125 31.8183 43.3404Z" fill="white"/>
<defs>
<linearGradient id="paint0_linear_1507_1789" x1="47.2531" y1="6.9998" x2="25.9178" y2="6.9998" gradientUnits="userSpaceOnUse">
<stop stop-color="white"/>
<stop offset="1"/>
</linearGradient>
</defs>
</svg>
