<svg width="52" height="52" viewBox="0 0 52 52" fill="none" xmlns="http://www.w3.org/2000/svg">
<path d="M25.9977 1.88867L8.92896 11.7443V31.4555L25.9977 41.3111L43.0709 31.4555V11.7443L25.9977 1.88867Z" fill="white" stroke="black" stroke-width="1.53246" stroke-miterlimit="10"/>
<path d="M8.92896 11.7441L25.9977 21.5997L43.0709 11.7441" stroke="black" stroke-width="1.53246" stroke-miterlimit="10"/>
<path d="M25.9977 21.5999V41.3111" stroke="black" stroke-width="1.53246" stroke-miterlimit="10"/>
<path d="M14.3372 20.748C14.8816 20.4337 14.8812 19.4139 14.3364 18.4703C13.7916 17.5266 12.9087 17.0165 12.3643 17.3308C11.8199 17.6451 11.8202 18.6649 12.365 19.6085C12.9098 20.5521 13.7928 21.0623 14.3372 20.748Z" fill="black"/>
<path d="M22.558 25.4909C23.1024 25.1766 23.1021 24.1568 22.5573 23.2132C22.0125 22.2696 21.1295 21.7594 20.5851 22.0737C20.0407 22.388 20.041 23.4078 20.5858 24.3514C21.1306 25.295 22.0136 25.8052 22.558 25.4909Z" fill="black"/>
<path d="M18.4508 28.2365C18.9952 27.9222 18.9949 26.9024 18.4501 25.9588C17.9053 25.0152 17.0223 24.505 16.4779 24.8193C15.9335 25.1336 15.9338 26.1534 16.4786 27.097C17.0234 28.0406 17.9064 28.5508 18.4508 28.2365Z" fill="black"/>
<path d="M14.3394 30.9821C14.8838 30.6678 14.8834 29.648 14.3386 28.7044C13.7938 27.7608 12.9109 27.2506 12.3665 27.5649C11.8221 27.8792 11.8224 28.899 12.3672 29.8426C12.912 30.7862 13.795 31.2964 14.3394 30.9821Z" fill="black"/>
<path d="M22.5602 35.725C23.1046 35.4107 23.1043 34.391 22.5595 33.4473C22.0147 32.5037 21.1317 31.9935 20.5873 32.3078C20.0429 32.6222 20.0432 33.6419 20.588 34.5855C21.1328 35.5292 22.0158 36.0393 22.5602 35.725Z" fill="black"/>
<path d="M35.5204 27.0978C36.0652 26.1542 36.0655 25.1345 35.5211 24.8201C34.9767 24.5058 34.0938 25.016 33.549 25.9596C33.0041 26.9033 33.0038 27.923 33.5482 28.2373C34.0926 28.5516 34.9756 28.0415 35.5204 27.0978Z" fill="black"/>
<path d="M17.4589 12.6951C18.5485 12.6951 19.4318 12.1855 19.4318 11.5569C19.4318 10.9283 18.5485 10.4187 17.4589 10.4187C16.3693 10.4187 15.486 10.9283 15.486 11.5569C15.486 12.1855 16.3693 12.6951 17.4589 12.6951Z" fill="black"/>
<path d="M34.541 13.0655C35.6306 13.0655 36.5139 12.5559 36.5139 11.9273C36.5139 11.2987 35.6306 10.7891 34.541 10.7891C33.4514 10.7891 32.5681 11.2987 32.5681 11.9273C32.5681 12.5559 33.4514 13.0655 34.541 13.0655Z" fill="black"/>
<rect width="37.2667" height="14" transform="translate(7.3667 36.1113)" fill="white"/>
<rect width="37.2667" height="14" transform="translate(7.3667 36.1113)" fill="url(#paint0_linear_1507_1810)"/>
<path d="M17.6219 46.1113V39.8059H18.7642V45.1538H21.5413V46.1113H17.6219ZM24.5462 46.2037C24.0844 46.2037 23.6842 46.1021 23.3455 45.8989C23.0068 45.6957 22.7441 45.4114 22.5573 45.0461C22.3726 44.6807 22.2802 44.2538 22.2802 43.7653C22.2802 43.2767 22.3726 42.8488 22.5573 42.4814C22.7441 42.114 23.0068 41.8287 23.3455 41.6255C23.6842 41.4223 24.0844 41.3207 24.5462 41.3207C25.0081 41.3207 25.4083 41.4223 25.747 41.6255C26.0856 41.8287 26.3473 42.114 26.5321 42.4814C26.7189 42.8488 26.8122 43.2767 26.8122 43.7653C26.8122 44.2538 26.7189 44.6807 26.5321 45.0461C26.3473 45.4114 26.0856 45.6957 25.747 45.8989C25.4083 46.1021 25.0081 46.2037 24.5462 46.2037ZM24.5524 45.3108C24.8028 45.3108 25.0122 45.2421 25.1805 45.1045C25.3488 44.965 25.474 44.7782 25.5561 44.5442C25.6402 44.3102 25.6823 44.0495 25.6823 43.7622C25.6823 43.4728 25.6402 43.2111 25.5561 42.9771C25.474 42.741 25.3488 42.5532 25.1805 42.4136C25.0122 42.2741 24.8028 42.2043 24.5524 42.2043C24.2958 42.2043 24.0823 42.2741 23.912 42.4136C23.7437 42.5532 23.6174 42.741 23.5333 42.9771C23.4512 43.2111 23.4101 43.4728 23.4101 43.7622C23.4101 44.0495 23.4512 44.3102 23.5333 44.5442C23.6174 44.7782 23.7437 44.965 23.912 45.1045C24.0823 45.2421 24.2958 45.3108 24.5524 45.3108ZM28.5987 46.1113L27.2625 41.3822H28.3986L29.2299 44.7074H29.273L30.1228 41.3822H31.2465L32.0963 44.6889H32.1425L32.9615 41.3822H34.1006L32.7613 46.1113H31.6006L30.7139 42.9155H30.6492L29.7625 46.1113H28.5987Z" fill="white"/>
<defs>
<linearGradient id="paint0_linear_1507_1810" x1="47.2531" y1="6.9998" x2="25.9178" y2="6.9998" gradientUnits="userSpaceOnUse">
<stop stop-color="white"/>
<stop offset="1"/>
</linearGradient>
</defs>
</svg>
