<svg width="32" height="32" viewBox="0 0 32 32" fill="none" xmlns="http://www.w3.org/2000/svg">
<path d="M3.02344 2.66669L14.2772 11.0022L12.1872 6.08446L3.02344 2.66669Z" fill="#E17726" stroke="#E17726" stroke-width="0.190084" stroke-linecap="round" stroke-linejoin="round"/>
<path d="M28.9766 2.66669L17.8252 11.0811L19.8128 6.08446L28.9766 2.66669Z" fill="#E27625" stroke="#E27625" stroke-width="0.190084" stroke-linecap="round" stroke-linejoin="round"/>
<path d="M7.06888 21.99L10.0626 26.57L3.65669 28.3289L1.82595 22.0911L7.06888 21.99Z" fill="#E27625" stroke="#E27625" stroke-width="0.190084" stroke-linecap="round" stroke-linejoin="round"/>
<path d="M30.163 22.0911L28.3434 28.3289L21.9374 26.57L24.92 21.99L30.163 22.0911Z" fill="#E27625" stroke="#E27625" stroke-width="0.190084" stroke-linecap="round" stroke-linejoin="round"/>
<path d="M22.2879 14.2511L24.0731 16.9478L17.7228 17.23L17.9376 10.4044L22.2879 14.2511Z" fill="#E27625" stroke="#E27625" stroke-width="0.190084" stroke-linecap="round" stroke-linejoin="round"/>
<path d="M9.71205 14.2511L14.1303 10.3256L14.2772 17.23L7.92694 16.9478L9.71205 14.2511Z" fill="#E27625" stroke="#E27625" stroke-width="0.190084" stroke-linecap="round" stroke-linejoin="round"/>
<path d="M21.9374 26.57L18.1067 24.7078L21.4065 22.1367L21.9374 26.57Z" fill="#E27625" stroke="#E27625" stroke-width="0.190084" stroke-linecap="round" stroke-linejoin="round"/>
<path d="M13.8932 24.7078L10.0626 26.57L10.5935 22.1367L13.8932 24.7078Z" fill="#E27625" stroke="#E27625" stroke-width="0.190084" stroke-linecap="round" stroke-linejoin="round"/>
<path d="M10.0626 26.57L13.8932 24.7078L13.5883 27.2011L13.6217 28.25L10.0626 26.57Z" fill="#D5BFB2" stroke="#D5BFB2" stroke-width="0.190084" stroke-linecap="round" stroke-linejoin="round"/>
<path d="M21.9374 26.57L18.3783 28.25L18.4005 27.2011L18.1067 24.7078L21.9374 26.57Z" fill="#D5BFB2" stroke="#D5BFB2" stroke-width="0.190084" stroke-linecap="round" stroke-linejoin="round"/>
<path d="M18.3104 20.4889L21.4967 19.5533L19.2486 18.5267L18.3104 20.4889Z" fill="#233447" stroke="#233447" stroke-width="0.190084" stroke-linecap="round" stroke-linejoin="round"/>
<path d="M13.6896 20.4889L12.7514 18.5267L10.4922 19.5533L13.6896 20.4889Z" fill="#233447" stroke="#233447" stroke-width="0.190084" stroke-linecap="round" stroke-linejoin="round"/>
<path d="M21.9374 26.57L21.3843 21.99L24.92 22.0911L21.9374 26.57Z" fill="#CC6228" stroke="#CC6228" stroke-width="0.190084" stroke-linecap="round" stroke-linejoin="round"/>
<path d="M10.6157 21.99L10.0625 26.57L7.06881 22.0911L10.6157 21.99Z" fill="#CC6228" stroke="#CC6228" stroke-width="0.190084" stroke-linecap="round" stroke-linejoin="round"/>
<path d="M7.92694 16.9478L14.2772 17.23L13.6896 20.4889L12.7514 18.5267L10.4922 19.5534L7.92694 16.9478Z" fill="#CC6228" stroke="#CC6228" stroke-width="0.190084" stroke-linecap="round" stroke-linejoin="round"/>
<path d="M21.4967 19.5534L19.2486 18.5267L18.3104 20.4889L17.7228 17.23L24.0731 16.9478L21.4967 19.5534Z" fill="#CC6228" stroke="#CC6228" stroke-width="0.190084" stroke-linecap="round" stroke-linejoin="round"/>
<path d="M24.0731 16.9478L21.4065 22.1367L21.4967 19.5534L24.0731 16.9478Z" fill="#E27525" stroke="#E27525" stroke-width="0.190084" stroke-linecap="round" stroke-linejoin="round"/>
<path d="M10.4922 19.5534L10.5935 22.1367L7.92697 16.9478L10.4922 19.5534Z" fill="#E27525" stroke="#E27525" stroke-width="0.190084" stroke-linecap="round" stroke-linejoin="round"/>
<path d="M17.7228 17.23L18.3104 20.4889L17.5648 24.3355L17.4067 19.2711L17.7228 17.23Z" fill="#E27525" stroke="#E27525" stroke-width="0.190084" stroke-linecap="round" stroke-linejoin="round"/>
<path d="M14.2772 17.23L14.5822 19.26L14.4353 24.3355L13.6896 20.4889L14.2772 17.23Z" fill="#E27525" stroke="#E27525" stroke-width="0.190084" stroke-linecap="round" stroke-linejoin="round"/>
<path d="M13.6896 20.4889L14.4352 24.3356L13.8933 24.7078L10.5935 22.1367L10.4922 19.5533L13.6896 20.4889Z" fill="#F5841F" stroke="#F5841F" stroke-width="0.190084" stroke-linecap="round" stroke-linejoin="round"/>
<path d="M21.4967 19.5533L21.4066 22.1367L18.1068 24.7078L17.5648 24.3356L18.3104 20.4889L21.4967 19.5533Z" fill="#F5841F" stroke="#F5841F" stroke-width="0.190084" stroke-linecap="round" stroke-linejoin="round"/>
<path d="M13.6217 28.25L13.5883 27.2011L13.8699 26.9533H18.1301L18.4005 27.2011L18.3783 28.25L21.9374 26.57L20.6943 27.5845L18.1635 29.3333H13.8365L11.3057 27.5845L10.0626 26.57L13.6217 28.25Z" fill="#C0AC9D" stroke="#C0AC9D" stroke-width="0.190084" stroke-linecap="round" stroke-linejoin="round"/>
<path d="M13.8933 24.7078L14.4353 24.3356H17.5648L18.1068 24.7078L18.4006 27.2011L18.1301 26.9533H13.8699L13.5883 27.2011L13.8933 24.7078Z" fill="#161616" stroke="#161616" stroke-width="0.190084" stroke-linecap="round" stroke-linejoin="round"/>
<path d="M2.54932 11.5445L1.6 6.94224L3.02342 2.66669L13.8932 10.7211L9.71203 14.2511L3.80357 15.9778L2.50369 14.4545L3.06905 14.0489L2.16537 13.2245L2.85426 12.6834L1.95057 11.9956L2.54932 11.5445Z" fill="#763E1A" stroke="#763E1A" stroke-width="0.190084" stroke-linecap="round" stroke-linejoin="round"/>
<path d="M30.4 6.94224L29.4396 11.5445L30.0495 11.9956L29.1458 12.6834L29.8347 13.2245L28.931 14.0489L29.4963 14.4545L28.1965 15.9778L22.288 14.2511L18.1068 10.7211L28.9766 2.66669L30.4 6.94224Z" fill="#763E1A" stroke="#763E1A" stroke-width="0.190084" stroke-linecap="round" stroke-linejoin="round"/>
<path d="M3.80362 15.9778L9.71208 14.2511L7.92697 16.9478L10.5935 22.1367L7.06891 22.0911H1.82597L3.80362 15.9778Z" fill="#F5841F" stroke="#F5841F" stroke-width="0.190084" stroke-linecap="round" stroke-linejoin="round"/>
<path d="M22.288 14.2511L28.1964 15.9778L30.163 22.0911H24.92L21.4066 22.1367L24.0731 16.9478L22.288 14.2511Z" fill="#F5841F" stroke="#F5841F" stroke-width="0.190084" stroke-linecap="round" stroke-linejoin="round"/>
<path d="M14.2772 17.23L13.8932 10.7211L12.1871 6.08447H19.8128L18.1067 10.7211L17.7228 17.23L17.5759 19.2823L17.5647 24.3356H14.4352L14.4241 19.2823L14.2772 17.23Z" fill="#F5841F" stroke="#F5841F" stroke-width="0.190084" stroke-linecap="round" stroke-linejoin="round"/>
</svg>
