<svg xmlns="http://www.w3.org/2000/svg" width="24" height="24" viewBox="0 0 24 24" fill="none">
  <path d="M10.1091 7.9954C10.3887 7.77326 10.7209 7.61171 11.0769 7.51076V10.9507C10.7141 10.8477 10.3828 10.6836 10.1091 10.4661C9.62446 10.0812 9.43695 9.62825 9.43695 9.23077C9.43695 8.83329 9.62446 8.38036 10.1091 7.9954Z" fill="#FCFC54"/>
  <path d="M12.9231 16.5066V13.0318C13.3505 13.1357 13.74 13.3117 14.057 13.5495C14.5819 13.9432 14.7692 14.3937 14.7692 14.7692C14.7692 15.1447 14.5819 15.5952 14.057 15.9889C13.74 16.2267 13.3505 16.4027 12.9231 16.5066Z" fill="#FCFC54"/>
  <path fill-rule="evenodd" clip-rule="evenodd" d="M12 0C5.37258 0 0 5.37258 0 12C0 18.6274 5.37258 24 12 24C18.6274 24 24 18.6274 24 12C24 5.37258 18.6274 0 12 0ZM12.9231 4.61538C12.9231 4.10558 12.5098 3.69231 12 3.69231C11.4902 3.69231 11.0769 4.10558 11.0769 4.61538V5.61923C10.3054 5.75593 9.56963 6.06613 8.96072 6.54985C8.08396 7.24634 7.5908 8.21083 7.5908 9.23077C7.5908 10.2507 8.08396 11.2152 8.96072 11.9117C9.57912 12.4029 10.3171 12.7077 11.0769 12.8423V16.5065C10.6496 16.4026 10.2602 16.2266 9.94324 15.9889L8.86155 15.1776C8.45372 14.8717 7.87513 14.9543 7.56924 15.3622C7.26335 15.77 7.346 16.3486 7.75383 16.6545L8.83552 17.4658C9.49177 17.958 10.2744 18.2592 11.0769 18.3881V19.3846C11.0769 19.8944 11.4902 20.3077 12 20.3077C12.5098 20.3077 12.9231 19.8944 12.9231 19.3846V18.3881C13.7257 18.2592 14.5084 17.9581 15.1648 17.4658C16.0818 16.778 16.6154 15.8111 16.6154 14.7692C16.6154 13.7273 16.0818 12.7604 15.1648 12.0726C14.5084 11.5803 13.7257 11.2792 12.9231 11.1503V7.51085C13.279 7.61181 13.6111 7.77333 13.8906 7.9954L14.4012 8.40105C14.8004 8.71815 15.3811 8.65162 15.6982 8.25244C16.0153 7.85327 15.9488 7.27261 15.5496 6.9555L15.0389 6.54985C14.4301 6.06621 13.6945 5.75602 12.9231 5.61929V4.61538Z" fill="#FCFC54"/>
</svg>