<svg width="52" height="52" viewBox="0 0 52 52" fill="none" xmlns="http://www.w3.org/2000/svg">
<path fill-rule="evenodd" clip-rule="evenodd" d="M27.1174 4.70124C26.4907 4.10772 25.5094 4.10772 24.8827 4.70124C20.513 8.83951 14.6169 11.3752 8.12506 11.3752C8.02178 11.3752 7.91865 11.3746 7.81568 11.3733C7.10639 11.3645 6.47334 11.8168 6.25179 12.4906C5.35795 15.2093 4.87506 18.1125 4.87506 21.1253C4.87506 33.9997 13.6805 44.8133 25.595 47.8799C25.8607 47.9483 26.1394 47.9483 26.4051 47.8799C38.3196 44.8133 47.1251 33.9997 47.1251 21.1253C47.1251 18.1125 46.6422 15.2093 45.7483 12.4906C45.5268 11.8168 44.8937 11.3645 44.1844 11.3733C44.0815 11.3746 43.9783 11.3752 43.8751 11.3752C37.3832 11.3752 31.4871 8.83951 27.1174 4.70124ZM33.8224 22.0695C34.344 21.3392 34.1749 20.3243 33.4446 19.8027C32.7143 19.281 31.6994 19.4502 31.1777 20.1805L24.1677 29.9945L20.6491 26.476C20.0145 25.8413 18.9856 25.8413 18.351 26.476C17.7164 27.1106 17.7164 28.1394 18.351 28.774L23.226 33.649C23.5638 33.9868 24.033 34.1589 24.5091 34.1195C24.9851 34.0801 25.4197 33.8332 25.6974 33.4445L33.8224 22.0695Z" fill="url(#paint0_linear_1507_1774)"/>
<defs>
<linearGradient id="paint0_linear_1507_1774" x1="58.4469" y1="26.093" x2="34.2586" y2="26.093" gradientUnits="userSpaceOnUse">
<stop stop-color="white"/>
<stop offset="1"/>
</linearGradient>
</defs>
</svg>
