<svg width="236" height="218" viewBox="0 0 236 218" fill="none" xmlns="http://www.w3.org/2000/svg">
<g filter="url(#filter0_dd_1451_6154)">
<rect x="45" y="20" width="146" height="146" rx="16.2222" fill="url(#paint0_linear_1451_6154)"/>
<path d="M118.488 38.4744L88.3853 55.8558V90.6186L118.488 108L148.598 90.6186V55.8558L118.488 38.4744Z" fill="white" stroke="black" stroke-width="1.76822" stroke-miterlimit="10"/>
<path d="M88.3853 55.8558L118.488 73.2372L148.598 55.8558" stroke="black" stroke-width="1.76822" stroke-miterlimit="10"/>
<path d="M118.488 73.2371V108" stroke="black" stroke-width="1.76822" stroke-miterlimit="10"/>
<path d="M97.9232 71.735C98.8833 71.1806 98.8827 69.3822 97.9219 67.718C96.9611 66.0538 95.4039 65.1541 94.4437 65.7084C93.4836 66.2627 93.4842 68.0612 94.445 69.7254C95.4059 71.3896 96.9631 72.2893 97.9232 71.735Z" fill="black"/>
<path d="M112.421 80.0996C113.382 79.5453 113.381 77.7469 112.42 76.0827C111.459 74.4185 109.902 73.5188 108.942 74.0731C107.982 74.6274 107.983 76.4259 108.943 78.0901C109.904 79.7542 111.461 80.654 112.421 80.0996Z" fill="black"/>
<path d="M105.178 84.9417C106.138 84.3874 106.138 82.5889 105.177 80.9247C104.216 79.2605 102.659 78.3608 101.699 78.9151C100.739 79.4695 100.739 81.2679 101.7 82.9321C102.661 84.5963 104.218 85.496 105.178 84.9417Z" fill="black"/>
<path d="M97.9271 89.784C98.8872 89.2297 98.8866 87.4312 97.9258 85.767C96.965 84.1028 95.4078 83.2031 94.4477 83.7574C93.4875 84.3117 93.4881 86.1102 94.4489 87.7744C95.4098 89.4386 96.967 90.3383 97.9271 89.784Z" fill="black"/>
<path d="M112.425 98.1485C113.385 97.5942 113.385 95.7958 112.424 94.1316C111.463 92.4674 109.906 91.5677 108.946 92.122C107.986 92.6763 107.986 94.4748 108.947 96.1389C109.908 97.8031 111.465 98.7029 112.425 98.1485Z" fill="black"/>
<path d="M135.282 82.9334C136.243 81.2692 136.244 79.4707 135.283 78.9164C134.323 78.3621 132.766 79.2618 131.805 80.926C130.844 82.5902 130.844 84.3886 131.804 84.943C132.764 85.4973 134.321 84.5975 135.282 82.9334Z" fill="black"/>
<path d="M103.429 57.5326C105.35 57.5326 106.908 56.6338 106.908 55.5252C106.908 54.4166 105.35 53.5179 103.429 53.5179C101.507 53.5179 99.9491 54.4166 99.9491 55.5252C99.9491 56.6338 101.507 57.5326 103.429 57.5326Z" fill="black"/>
<path d="M133.555 58.186C135.476 58.186 137.034 57.2872 137.034 56.1786C137.034 55.07 135.476 54.1712 133.555 54.1712C131.633 54.1712 130.075 55.07 130.075 56.1786C130.075 57.2872 131.633 58.186 133.555 58.186Z" fill="black"/>
<path d="M106.708 127.089C106.461 126.314 106.128 125.619 105.711 125.006C105.301 124.384 104.811 123.855 104.24 123.42C103.669 122.977 103.017 122.641 102.284 122.411C101.56 122.18 100.763 122.065 99.8938 122.065C98.4194 122.065 97.0899 122.445 95.9052 123.203C94.7205 123.962 93.783 125.074 93.0927 126.54C92.4109 127.997 92.07 129.783 92.07 131.896C92.07 134.018 92.4151 135.812 93.1055 137.278C93.7958 138.744 94.7418 139.857 95.9435 140.615C97.1452 141.374 98.5131 141.753 100.047 141.753C101.471 141.753 102.711 141.463 103.767 140.884C104.833 140.304 105.655 139.486 106.235 138.429C106.823 137.364 107.117 136.111 107.117 134.67L108.14 134.862H100.648V131.602H110.939V134.581C110.939 136.78 110.471 138.689 109.533 140.308C108.604 141.919 107.317 143.163 105.672 144.041C104.036 144.919 102.161 145.358 100.047 145.358C97.6779 145.358 95.5984 144.812 93.8086 143.722C92.0274 142.631 90.6381 141.084 89.641 139.081C88.6438 137.07 88.1452 134.683 88.1452 131.922C88.1452 129.834 88.435 127.959 89.0146 126.297C89.5941 124.635 90.408 123.224 91.4563 122.065C92.5131 120.898 93.7532 120.007 95.1765 119.393C96.6083 118.771 98.1722 118.46 99.8683 118.46C101.283 118.46 102.6 118.669 103.819 119.087C105.046 119.504 106.137 120.097 107.091 120.864C108.054 121.631 108.851 122.543 109.482 123.599C110.113 124.648 110.539 125.811 110.76 127.089H106.708ZM137.977 131.909C137.977 134.705 137.465 137.108 136.443 139.119C135.42 141.122 134.018 142.665 132.237 143.747C130.464 144.821 128.448 145.358 126.19 145.358C123.923 145.358 121.899 144.821 120.117 143.747C118.345 142.665 116.947 141.118 115.924 139.107C114.901 137.095 114.39 134.696 114.39 131.909C114.39 129.114 114.901 126.714 115.924 124.712C116.947 122.7 118.345 121.158 120.117 120.084C121.899 119.001 123.923 118.46 126.19 118.46C128.448 118.46 130.464 119.001 132.237 120.084C134.018 121.158 135.42 122.7 136.443 124.712C137.465 126.714 137.977 129.114 137.977 131.909ZM134.065 131.909C134.065 129.778 133.72 127.984 133.029 126.527C132.347 125.061 131.41 123.953 130.217 123.203C129.032 122.445 127.69 122.065 126.19 122.065C124.681 122.065 123.335 122.445 122.15 123.203C120.965 123.953 120.028 125.061 119.338 126.527C118.656 127.984 118.315 129.778 118.315 131.909C118.315 134.04 118.656 135.838 119.338 137.304C120.028 138.761 120.965 139.869 122.15 140.628C123.335 141.378 124.681 141.753 126.19 141.753C127.69 141.753 129.032 141.378 130.217 140.628C131.41 139.869 132.347 138.761 133.029 137.304C133.72 135.838 134.065 134.04 134.065 131.909ZM146.695 118.818L146.362 137.47H142.821L142.489 118.818H146.695ZM144.598 145.243C143.891 145.243 143.286 144.996 142.783 144.501C142.28 143.999 142.033 143.393 142.041 142.686C142.033 141.987 142.28 141.391 142.783 140.896C143.286 140.393 143.891 140.142 144.598 140.142C145.288 140.142 145.885 140.393 146.388 140.896C146.891 141.391 147.146 141.987 147.155 142.686C147.146 143.155 147.023 143.585 146.784 143.977C146.554 144.361 146.247 144.668 145.864 144.898C145.48 145.128 145.058 145.243 144.598 145.243Z" fill="white"/>
</g>
<defs>
<filter id="filter0_dd_1451_6154" x="0" y="0" width="236" height="236" filterUnits="userSpaceOnUse" color-interpolation-filters="sRGB">
<feFlood flood-opacity="0" result="BackgroundImageFix"/>
<feColorMatrix in="SourceAlpha" type="matrix" values="0 0 0 0 0 0 0 0 0 0 0 0 0 0 0 0 0 0 127 0" result="hardAlpha"/>
<feMorphology radius="15" operator="erode" in="SourceAlpha" result="effect1_dropShadow_1451_6154"/>
<feOffset dy="25"/>
<feGaussianBlur stdDeviation="30"/>
<feColorMatrix type="matrix" values="0 0 0 0 0.0625882 0 0 0 0 0.0926346 0 0 0 0 0.15702 0 0 0 0.2 0"/>
<feBlend mode="normal" in2="BackgroundImageFix" result="effect1_dropShadow_1451_6154"/>
<feColorMatrix in="SourceAlpha" type="matrix" values="0 0 0 0 0 0 0 0 0 0 0 0 0 0 0 0 0 0 127 0" result="hardAlpha"/>
<feMorphology radius="15" operator="erode" in="SourceAlpha" result="effect2_dropShadow_1451_6154"/>
<feOffset dy="25"/>
<feGaussianBlur stdDeviation="30"/>
<feColorMatrix type="matrix" values="0 0 0 0 0.0625882 0 0 0 0 0.0926346 0 0 0 0 0.15702 0 0 0 0.12 0"/>
<feBlend mode="normal" in2="effect1_dropShadow_1451_6154" result="effect2_dropShadow_1451_6154"/>
<feBlend mode="normal" in="SourceGraphic" in2="effect2_dropShadow_1451_6154" result="shape"/>
</filter>
<linearGradient id="paint0_linear_1451_6154" x1="230.124" y1="92.998" x2="146.538" y2="92.998" gradientUnits="userSpaceOnUse">
<stop stop-color="white"/>
<stop offset="1"/>
</linearGradient>
</defs>
</svg>
