<svg width="564" height="380" viewBox="0 0 564 380" fill="none" xmlns="http://www.w3.org/2000/svg">
<rect width="564" height="380" fill="#25291B"/>
<path d="M16 56H548V364H16V56Z" fill="#11140C"/>
<path d="M16 56V55H15V56H16ZM548 56H549V55H548V56ZM548 364V365H549V364H548ZM16 364H15V365H16V364ZM16 57H548V55H16V57ZM547 56V364H549V56H547ZM548 363H16V365H548V363ZM17 364V56H15V364H17Z" fill="#9EA889"/>
<path d="M230.492 142L171 175.896V243.689L230.492 277.586L290 243.689V175.896L230.492 142Z" fill="#FCFC54" stroke="black" stroke-width="1.76822" stroke-miterlimit="10"/>
<path d="M171 175.896L230.492 209.793L290 175.896" stroke="black" stroke-width="2" stroke-miterlimit="10"/>
<path d="M230.492 209.793V277.586" stroke="black" stroke-width="2" stroke-miterlimit="10"/>
<path d="M189.85 206.863C191.748 205.782 191.746 202.275 189.848 199.03C187.949 195.784 184.871 194.03 182.974 195.111C181.076 196.192 181.077 199.699 182.976 202.944C184.875 206.19 187.953 207.944 189.85 206.863Z" fill="black"/>
<path d="M218.503 223.176C220.401 222.095 220.4 218.588 218.501 215.342C216.602 212.097 213.524 210.342 211.627 211.423C209.729 212.504 209.731 216.011 211.63 219.257C213.528 222.502 216.606 224.257 218.503 223.176Z" fill="black"/>
<path d="M204.188 232.619C206.086 231.538 206.084 228.03 204.186 224.785C202.287 221.54 199.209 219.785 197.312 220.866C195.414 221.947 195.415 225.454 197.314 228.7C199.213 231.945 202.291 233.7 204.188 232.619Z" fill="black"/>
<path d="M189.858 242.062C191.756 240.981 191.754 237.474 189.855 234.228C187.957 230.983 184.879 229.228 182.982 230.309C181.084 231.39 181.085 234.897 182.984 238.143C184.883 241.388 187.961 243.143 189.858 242.062Z" fill="black"/>
<path d="M218.511 258.374C220.408 257.293 220.407 253.786 218.508 250.54C216.609 247.295 213.532 245.54 211.634 246.621C209.737 247.702 209.738 251.21 211.637 254.455C213.536 257.7 216.613 259.455 218.511 258.374Z" fill="black"/>
<path d="M263.683 228.702C265.582 225.456 265.583 221.949 263.686 220.868C261.788 219.787 258.711 221.542 256.812 224.787C254.913 228.033 254.912 231.54 256.809 232.621C258.707 233.702 261.784 231.947 263.683 228.702Z" fill="black"/>
<path d="M200.73 179.166C204.528 179.166 207.607 177.414 207.607 175.252C207.607 173.09 204.528 171.337 200.73 171.337C196.932 171.337 193.854 173.09 193.854 175.252C193.854 177.414 196.932 179.166 200.73 179.166Z" fill="black"/>
<path d="M260.269 180.441C264.067 180.441 267.145 178.688 267.145 176.526C267.145 174.364 264.067 172.611 260.269 172.611C256.471 172.611 253.393 174.364 253.393 176.526C253.393 178.688 256.471 180.441 260.269 180.441Z" fill="black"/>
<g filter="url(#filter0_d_1451_6584)">
<path d="M381.767 258.273C377.616 258.212 373.525 257.455 369.494 256C365.494 254.545 361.858 252.121 358.585 248.727C355.313 245.333 352.691 240.773 350.722 235.045C348.782 229.318 347.812 222.167 347.812 213.591C347.812 205.47 348.616 198.258 350.222 191.955C351.858 185.652 354.206 180.333 357.267 176C360.328 171.636 364.025 168.318 368.358 166.045C372.691 163.773 377.555 162.636 382.949 162.636C388.494 162.636 393.419 163.727 397.722 165.909C402.025 168.091 405.509 171.106 408.176 174.955C410.873 178.803 412.585 183.182 413.312 188.091H399.449C398.509 184.212 396.646 181.045 393.858 178.591C391.07 176.136 387.434 174.909 382.949 174.909C376.131 174.909 370.813 177.879 366.994 183.818C363.206 189.758 361.297 198.015 361.267 208.591H361.949C363.555 205.955 365.525 203.712 367.858 201.864C370.222 199.985 372.858 198.545 375.767 197.545C378.706 196.515 381.797 196 385.04 196C390.434 196 395.313 197.318 399.676 199.955C404.07 202.561 407.57 206.167 410.176 210.773C412.782 215.379 414.085 220.652 414.085 226.591C414.085 232.53 412.737 237.909 410.04 242.727C407.373 247.545 403.616 251.364 398.767 254.182C393.919 256.97 388.252 258.333 381.767 258.273ZM381.722 246.455C385.297 246.455 388.494 245.576 391.312 243.818C394.131 242.061 396.358 239.697 397.994 236.727C399.631 233.758 400.449 230.439 400.449 226.773C400.449 223.197 399.646 219.939 398.04 217C396.464 214.061 394.282 211.727 391.494 210C388.737 208.273 385.585 207.409 382.04 207.409C379.343 207.409 376.843 207.924 374.54 208.955C372.267 209.985 370.267 211.409 368.54 213.227C366.813 215.045 365.449 217.136 364.449 219.5C363.479 221.833 362.994 224.303 362.994 226.909C362.994 230.394 363.797 233.621 365.403 236.591C367.04 239.561 369.267 241.955 372.085 243.773C374.934 245.561 378.146 246.455 381.722 246.455Z" fill="#FCFC54"/>
</g>
<defs>
<filter id="filter0_d_1451_6584" x="337.812" y="152.636" width="86.2727" height="115.727" filterUnits="userSpaceOnUse" color-interpolation-filters="sRGB">
<feFlood flood-opacity="0" result="BackgroundImageFix"/>
<feColorMatrix in="SourceAlpha" type="matrix" values="0 0 0 0 0 0 0 0 0 0 0 0 0 0 0 0 0 0 127 0" result="hardAlpha"/>
<feOffset/>
<feGaussianBlur stdDeviation="5"/>
<feComposite in2="hardAlpha" operator="out"/>
<feColorMatrix type="matrix" values="0 0 0 0 0.988235 0 0 0 0 0.988235 0 0 0 0 0.329412 0 0 0 1 0"/>
<feBlend mode="normal" in2="BackgroundImageFix" result="effect1_dropShadow_1451_6584"/>
<feBlend mode="normal" in="SourceGraphic" in2="effect1_dropShadow_1451_6584" result="shape"/>
</filter>
</defs>
</svg>
