<svg width="534" height="310" viewBox="0 0 534 310" fill="none" xmlns="http://www.w3.org/2000/svg">
<path d="M1 1H533V309H1V1Z" fill="#11140C"/>
<path d="M1 1V0H0V1H1ZM533 1H534V0H533V1ZM533 309V310H534V309H533ZM1 309H0V310H1V309ZM1 2H533V0H1V2ZM532 1V309H534V1H532ZM533 308H1V310H533V308ZM2 309V1H0V309H2Z" fill="#9EA889"/>
<path d="M215.492 87L156 120.896V188.689L215.492 222.586L275 188.689V120.896L215.492 87Z" fill="#FCFC54" stroke="black" stroke-width="1.76822" stroke-miterlimit="10"/>
<path d="M156 120.896L215.492 154.793L275 120.896" stroke="black" stroke-width="2" stroke-miterlimit="10"/>
<path d="M215.492 154.793V222.586" stroke="black" stroke-width="2" stroke-miterlimit="10"/>
<path d="M174.85 151.863C176.748 150.782 176.746 147.275 174.848 144.03C172.949 140.784 169.871 139.03 167.974 140.111C166.076 141.192 166.077 144.699 167.976 147.944C169.875 151.19 172.953 152.944 174.85 151.863Z" fill="black"/>
<path d="M203.503 168.176C205.401 167.095 205.4 163.588 203.501 160.342C201.602 157.097 198.524 155.342 196.627 156.423C194.729 157.504 194.731 161.011 196.63 164.257C198.528 167.502 201.606 169.257 203.503 168.176Z" fill="black"/>
<path d="M189.188 177.619C191.086 176.538 191.084 173.03 189.186 169.785C187.287 166.54 184.209 164.785 182.312 165.866C180.414 166.947 180.415 170.454 182.314 173.7C184.213 176.945 187.291 178.7 189.188 177.619Z" fill="black"/>
<path d="M174.858 187.062C176.756 185.981 176.754 182.474 174.855 179.228C172.957 175.983 169.879 174.228 167.982 175.309C166.084 176.39 166.085 179.897 167.984 183.143C169.883 186.388 172.961 188.143 174.858 187.062Z" fill="black"/>
<path d="M203.511 203.374C205.408 202.293 205.407 198.786 203.508 195.54C201.609 192.295 198.532 190.54 196.634 191.621C194.737 192.702 194.738 196.21 196.637 199.455C198.536 202.7 201.613 204.455 203.511 203.374Z" fill="black"/>
<path d="M248.683 173.702C250.582 170.456 250.583 166.949 248.686 165.868C246.788 164.787 243.711 166.542 241.812 169.787C239.913 173.033 239.912 176.54 241.809 177.621C243.707 178.702 246.784 176.947 248.683 173.702Z" fill="black"/>
<path d="M185.73 124.166C189.528 124.166 192.607 122.414 192.607 120.252C192.607 118.09 189.528 116.337 185.73 116.337C181.932 116.337 178.854 118.09 178.854 120.252C178.854 122.414 181.932 124.166 185.73 124.166Z" fill="black"/>
<path d="M245.269 125.441C249.067 125.441 252.145 123.688 252.145 121.526C252.145 119.364 249.067 117.611 245.269 117.611C241.471 117.611 238.393 119.364 238.393 121.526C238.393 123.688 241.471 125.441 245.269 125.441Z" fill="black"/>
<g filter="url(#filter0_d_1451_6542)">
<path d="M366.767 203.273C362.616 203.212 358.525 202.455 354.494 201C350.494 199.545 346.858 197.121 343.585 193.727C340.313 190.333 337.691 185.773 335.722 180.045C333.782 174.318 332.812 167.167 332.812 158.591C332.812 150.47 333.616 143.258 335.222 136.955C336.858 130.652 339.206 125.333 342.267 121C345.328 116.636 349.025 113.318 353.358 111.045C357.691 108.773 362.555 107.636 367.949 107.636C373.494 107.636 378.419 108.727 382.722 110.909C387.025 113.091 390.509 116.106 393.176 119.955C395.873 123.803 397.585 128.182 398.312 133.091H384.449C383.509 129.212 381.646 126.045 378.858 123.591C376.07 121.136 372.434 119.909 367.949 119.909C361.131 119.909 355.813 122.879 351.994 128.818C348.206 134.758 346.297 143.015 346.267 153.591H346.949C348.555 150.955 350.525 148.712 352.858 146.864C355.222 144.985 357.858 143.545 360.767 142.545C363.706 141.515 366.797 141 370.04 141C375.434 141 380.313 142.318 384.676 144.955C389.07 147.561 392.57 151.167 395.176 155.773C397.782 160.379 399.085 165.652 399.085 171.591C399.085 177.53 397.737 182.909 395.04 187.727C392.373 192.545 388.616 196.364 383.767 199.182C378.919 201.97 373.252 203.333 366.767 203.273ZM366.722 191.455C370.297 191.455 373.494 190.576 376.312 188.818C379.131 187.061 381.358 184.697 382.994 181.727C384.631 178.758 385.449 175.439 385.449 171.773C385.449 168.197 384.646 164.939 383.04 162C381.464 159.061 379.282 156.727 376.494 155C373.737 153.273 370.585 152.409 367.04 152.409C364.343 152.409 361.843 152.924 359.54 153.955C357.267 154.985 355.267 156.409 353.54 158.227C351.813 160.045 350.449 162.136 349.449 164.5C348.479 166.833 347.994 169.303 347.994 171.909C347.994 175.394 348.797 178.621 350.403 181.591C352.04 184.561 354.267 186.955 357.085 188.773C359.934 190.561 363.146 191.455 366.722 191.455Z" fill="#FCFC54"/>
</g>
<defs>
<filter id="filter0_d_1451_6542" x="322.812" y="97.6364" width="86.2727" height="115.727" filterUnits="userSpaceOnUse" color-interpolation-filters="sRGB">
<feFlood flood-opacity="0" result="BackgroundImageFix"/>
<feColorMatrix in="SourceAlpha" type="matrix" values="0 0 0 0 0 0 0 0 0 0 0 0 0 0 0 0 0 0 127 0" result="hardAlpha"/>
<feOffset/>
<feGaussianBlur stdDeviation="5"/>
<feComposite in2="hardAlpha" operator="out"/>
<feColorMatrix type="matrix" values="0 0 0 0 0.988235 0 0 0 0 0.988235 0 0 0 0 0.329412 0 0 0 1 0"/>
<feBlend mode="normal" in2="BackgroundImageFix" result="effect1_dropShadow_1451_6542"/>
<feBlend mode="normal" in="SourceGraphic" in2="effect1_dropShadow_1451_6542" result="shape"/>
</filter>
</defs>
</svg>
