<svg width="46" height="50" viewBox="0 0 46 50" fill="none" xmlns="http://www.w3.org/2000/svg">
<path fill-rule="evenodd" clip-rule="evenodd" d="M20.6948 0.778847C18.4034 0.778847 16.4478 2.43547 16.0711 4.69573L15.6244 7.37567C15.574 7.67794 15.3386 8.02834 14.8828 8.24751C14.0227 8.66116 13.1992 9.13834 12.4186 9.67286C12.0023 9.95783 11.5815 9.98685 11.2943 9.87923L8.74633 8.92468C6.60053 8.12079 4.18807 8.98606 3.04235 10.9705L0.737397 14.9628C-0.40832 16.9472 0.0485686 19.4691 1.81765 20.9255L3.91897 22.6554C4.15553 22.8501 4.34079 23.2284 4.30305 23.7307C4.26772 24.2008 4.24976 24.6754 4.24976 25.1538C4.24976 25.6325 4.26773 26.1073 4.30309 26.5776C4.34085 27.0798 4.15558 27.4581 3.91901 27.6529L1.81765 29.3828C0.048568 30.8392 -0.40832 33.3611 0.737397 35.3455L3.04235 39.3378C4.18807 41.3222 6.60054 42.1875 8.74633 41.3836L11.2948 40.4289C11.5821 40.3212 12.0029 40.3503 12.4191 40.6352C13.1996 41.1696 14.0229 41.6466 14.8828 42.0602C15.3386 42.2794 15.574 42.6297 15.6244 42.932L16.0711 45.612C16.4478 47.8722 18.4034 49.5288 20.6948 49.5288H25.3047C27.5961 49.5288 29.5517 47.8722 29.9284 45.612L30.3751 42.932C30.4255 42.6297 30.6609 42.2794 31.1167 42.0602C31.9768 41.6465 32.8003 41.1694 33.581 40.6348C33.9972 40.3499 34.418 40.3208 34.7052 40.4285L37.2532 41.383C39.399 42.1869 41.8114 41.3216 42.9572 39.3372L45.2621 35.3449C46.4078 33.3605 45.9509 30.8386 44.1819 29.3822L42.0805 27.6523C41.844 27.4576 41.6587 27.0793 41.6965 26.577C41.7318 26.1069 41.7498 25.6323 41.7498 25.1538C41.7498 24.6752 41.7318 24.2004 41.6964 23.7301C41.6587 23.2279 41.8439 22.8496 42.0805 22.6548L44.1819 20.9249C45.9509 19.4685 46.4078 16.9466 45.2621 14.9622L42.9572 10.9699C41.8114 8.98545 39.399 8.12019 37.2532 8.92408L34.7047 9.87884C34.4174 9.98645 33.9966 9.95744 33.5804 9.6725C32.7999 9.13812 31.9766 8.66106 31.1167 8.24751C30.6609 8.02834 30.4255 7.67794 30.3751 7.37567L29.9284 4.69572C29.5517 2.43547 27.5961 0.778847 25.3047 0.778847H20.6948ZM23.0001 34.5288C28.1777 34.5288 32.3751 30.3315 32.3751 25.1538C32.3751 19.9762 28.1777 15.7788 23.0001 15.7788C17.8224 15.7788 13.6251 19.9762 13.6251 25.1538C13.6251 30.3315 17.8224 34.5288 23.0001 34.5288Z" fill="url(#paint0_linear_1574_1500)"/>
<defs>
<linearGradient id="paint0_linear_1574_1500" x1="58.1585" y1="25.1532" x2="31.9485" y2="25.1532" gradientUnits="userSpaceOnUse">
<stop stop-color="white"/>
<stop offset="1"/>
</linearGradient>
</defs>
</svg>
