<svg width="60" height="60" viewBox="0 0 60 60" fill="none" xmlns="http://www.w3.org/2000/svg">
<g clip-path="url(#clip0_1439_2727)">
<path fill-rule="evenodd" clip-rule="evenodd" d="M27.6947 6.77881C25.4033 6.77881 23.4477 8.43543 23.071 10.6957L22.6244 13.3756C22.574 13.6779 22.3385 14.0283 21.8828 14.2475C21.0226 14.6611 20.1992 15.1383 19.4185 15.6728C19.0023 15.9578 18.5815 15.9868 18.2942 15.8792L15.7463 14.9246C13.6005 14.1208 11.188 14.986 10.0423 16.9705L7.73734 20.9628C6.59162 22.9472 7.04851 25.4691 8.81759 26.9255L10.9189 28.6553C11.1555 28.8501 11.3407 29.2284 11.303 29.7306C11.2677 30.2007 11.2497 30.6753 11.2497 31.1538C11.2497 31.6325 11.2677 32.1073 11.303 32.5775C11.3408 33.0798 11.1555 33.4581 10.9189 33.6529L8.81759 35.3828C7.04851 36.8391 6.59162 39.361 7.73734 41.3455L10.0423 45.3378C11.188 47.3222 13.6005 48.1875 15.7463 47.3836L18.2948 46.4288C18.582 46.3212 19.0028 46.3502 19.419 46.6352C20.1996 47.1695 21.0228 47.6466 21.8828 48.0601C22.3385 48.2793 22.574 48.6297 22.6244 48.932L23.071 51.6119C23.4477 53.8722 25.4033 55.5288 27.6947 55.5288H32.3046C34.5961 55.5288 36.5517 53.8722 36.9284 51.6119L37.375 48.932C37.4254 48.6297 37.6608 48.2793 38.1166 48.0601C38.9768 47.6465 39.8002 47.1693 40.5809 46.6348C40.9971 46.3498 41.4179 46.3208 41.7052 46.4284L44.2531 47.383C46.3989 48.1869 48.8114 47.3216 49.9571 45.3372L52.2621 41.3449C53.4078 39.3604 52.9509 36.8385 51.1818 35.3822L49.0805 33.6523C48.8439 33.4575 48.6586 33.0793 48.6964 32.577C48.7317 32.1069 48.7497 31.6323 48.7497 31.1538C48.7497 30.6752 48.7317 30.2004 48.6964 29.7301C48.6586 29.2278 48.8439 28.8495 49.0804 28.6548L51.1818 26.9249C52.9509 25.4685 53.4078 22.9466 52.2621 20.9622L49.9571 16.9699C48.8114 14.9854 46.3989 14.1201 44.2531 14.924L41.7046 15.8788C41.4174 15.9864 40.9966 15.9574 40.5804 15.6725C39.7998 15.1381 38.9766 14.661 38.1166 14.2475C37.6608 14.0283 37.4254 13.6779 37.375 13.3756L36.9284 10.6957C36.5517 8.43543 34.5961 6.77881 32.3046 6.77881H27.6947ZM30 40.5288C35.1777 40.5288 39.375 36.3315 39.375 31.1538C39.375 25.9761 35.1777 21.7788 30 21.7788C24.8223 21.7788 20.625 25.9761 20.625 31.1538C20.625 36.3315 24.8223 40.5288 30 40.5288Z" fill="#FCFC54"/>
</g>
<defs>
<clipPath id="clip0_1439_2727">
<rect width="60" height="60" fill="white"/>
</clipPath>
</defs>
</svg>
