<svg width="48" height="45" viewBox="0 0 48 45" fill="none" xmlns="http://www.w3.org/2000/svg">
<path d="M8.51052 0C7.37387 0 6.28378 0.451529 5.48005 1.25526L2.51051 4.2248C-0.836838 7.57215 -0.836838 12.9993 2.51051 16.3466C5.56687 19.403 10.3571 19.6687 13.7149 17.1437C15.1467 18.2186 16.928 18.8571 18.8571 18.8571C20.7866 18.8571 22.5681 18.2184 24 17.1432C25.4319 18.2184 27.2134 18.8571 29.1429 18.8571C31.072 18.8571 32.8533 18.2186 34.2851 17.1437C37.6429 19.6687 42.4331 19.403 45.4895 16.3466C48.8368 12.9993 48.8368 7.57215 45.4895 4.2248L42.52 1.25527C41.7162 0.451539 40.6261 1.02179e-05 39.4895 9.80922e-06L8.51052 0Z" fill="#FCFC54"/>
<path fill-rule="evenodd" clip-rule="evenodd" d="M3.42857 41.1429V21.1317C6.67477 22.671 10.4683 22.6699 13.7153 21.13C15.2746 21.8703 17.0197 22.2857 18.8571 22.2857C20.695 22.2857 22.4404 21.8701 24 21.1295C25.5596 21.8701 27.305 22.2857 29.1429 22.2857C30.9803 22.2857 32.7254 21.8703 34.2847 21.13C37.5317 22.6699 41.3252 22.671 44.5714 21.1317V41.1429H46.2857C47.2325 41.1429 48 41.9104 48 42.8572C48 43.8039 47.2325 44.5714 46.2857 44.5714H1.71428C0.767511 44.5714 0 43.8039 0 42.8572C0 41.9104 0.767512 41.1429 1.71429 41.1429H3.42857ZM10.2857 27.4286C10.2857 26.4818 11.0532 25.7143 12 25.7143H18.8571C19.8039 25.7143 20.5714 26.4818 20.5714 27.4286V34.2857C20.5714 35.2325 19.8039 36 18.8571 36H12C11.0532 36 10.2857 35.2325 10.2857 34.2857V27.4286ZM29.1429 25.7143C28.1961 25.7143 27.4286 26.4818 27.4286 27.4286V39.4286C27.4286 40.3753 28.1961 41.1429 29.1429 41.1429H36C36.9468 41.1429 37.7143 40.3753 37.7143 39.4286V27.4286C37.7143 26.4818 36.9468 25.7143 36 25.7143H29.1429Z" fill="#FCFC54"/>
</svg>
