<svg width="31" height="29" viewBox="0 0 31 29" fill="none" xmlns="http://www.w3.org/2000/svg">
<rect x="0.923096" y="0.0625" width="29.0769" height="28.875" rx="14.4375" fill="#25291B"/>
<path fill-rule="evenodd" clip-rule="evenodd" d="M10.4231 7C9.04238 7 7.9231 8.11929 7.9231 9.5V13.0983C7.9231 13.7614 8.18649 14.3973 8.65533 14.8661L16.6396 22.8504C17.4057 23.6165 18.6305 23.8387 19.5959 23.2067C21.4016 22.0244 22.9475 20.4785 24.1297 18.6728C24.7618 17.7074 24.5396 16.4826 23.7735 15.7165L15.7892 7.73223C15.3204 7.26339 14.6845 7 14.0214 7H10.4231ZM11.3606 11.375C11.8784 11.375 12.2981 10.9553 12.2981 10.4375C12.2981 9.91973 11.8784 9.5 11.3606 9.5C10.8428 9.5 10.4231 9.91973 10.4231 10.4375C10.4231 10.9553 10.8428 11.375 11.3606 11.375Z" fill="#F3F4F6"/>
</svg>
