<svg width="30" height="29" viewBox="0 0 30 29" fill="none" xmlns="http://www.w3.org/2000/svg">
<rect x="0.0769043" y="0.0625" width="29.0769" height="28.875" rx="14.4375" fill="#25291B"/>
<path fill-rule="evenodd" clip-rule="evenodd" d="M9.5 7C8.11929 7 7 8.11929 7 9.5V13.0983C7 13.7614 7.26339 14.3973 7.73223 14.8661L15.7165 22.8504C16.4826 23.6165 17.7074 23.8387 18.6728 23.2067C20.4785 22.0244 22.0244 20.4785 23.2067 18.6728C23.8387 17.7074 23.6165 16.4826 22.8504 15.7165L14.8661 7.73223C14.3973 7.26339 13.7614 7 13.0983 7H9.5ZM10.4375 11.375C10.9553 11.375 11.375 10.9553 11.375 10.4375C11.375 9.91973 10.9553 9.5 10.4375 9.5C9.91973 9.5 9.5 9.91973 9.5 10.4375C9.5 10.9553 9.91973 11.375 10.4375 11.375Z" fill="#FCFC54"/>
</svg>
